<?xml version="1.0" encoding="UTF-8" standalone="no"?>
<!-- Created with Inkscape (http://www.inkscape.org/) -->

<svg
   xmlns:dc="http://purl.org/dc/elements/1.1/"
   xmlns:cc="http://creativecommons.org/ns#"
   xmlns:rdf="http://www.w3.org/1999/02/22-rdf-syntax-ns#"
   xmlns:svg="http://www.w3.org/2000/svg"
   xmlns="http://www.w3.org/2000/svg"
   xmlns:sodipodi="http://sodipodi.sourceforge.net/DTD/sodipodi-0.dtd"
   xmlns:inkscape="http://www.inkscape.org/namespaces/inkscape"
   width="1200"
   height="400"
   viewBox="0 0 317.49999 105.83333"
   version="1.1"
   id="svg2215"
   inkscape:version="0.92.4 5da689c313, 2019-01-14"
   sodipodi:docname="phase_acc.svg">
  <defs
     id="defs2209" />
  <sodipodi:namedview
     id="base"
     pagecolor="#ffffff"
     bordercolor="#666666"
     borderopacity="1.0"
     inkscape:pageopacity="0.0"
     inkscape:pageshadow="2"
     inkscape:zoom="0.35"
     inkscape:cx="288.81362"
     inkscape:cy="560"
     inkscape:document-units="mm"
     inkscape:current-layer="layer1"
     showgrid="false"
     units="px"
     inkscape:window-width="1918"
     inkscape:window-height="1058"
     inkscape:window-x="0"
     inkscape:window-y="20"
     inkscape:window-maximized="1" />
  <metadata
     id="metadata2212">
    <rdf:RDF>
      <cc:Work
         rdf:about="">
        <dc:format>image/svg+xml</dc:format>
        <dc:type
           rdf:resource="http://purl.org/dc/dcmitype/StillImage" />
        <dc:title></dc:title>
      </cc:Work>
    </rdf:RDF>
  </metadata>
  <g
     inkscape:label="Layer 1"
     inkscape:groupmode="layer"
     id="layer1"
     transform="translate(0,-191.16663)">
    <g
       id="g2207"
       transform="matrix(0,0.26458333,-0.26458333,0,466.32633,184.98995)">
      <g
         id="g8">
        <path
           id="path6"
           d="m 128.415,1723.25 -0.897,-3.87 -1.377,-3.82 -0.693,1.54 0.394,0.43 0.28,0.45 0.208,0.56 0.149,0.35 -0.029,0.12 0.021,0.01 -0.061,-0.07 -0.108,-0.11 0.05,-0.17 0.02,-0.06 -0.003,0.14 0.101,-0.14 0.055,-0.04 0.017,0.12 0.34,-0.11 0.496,-0.11 1.006,0.18 1.507,0.12 1.512,0.03 1.602,0.02 1.646,-0.1 1.867,-0.23 1.771,-0.36 1.66,-0.25 1.468,-0.21 1.029,-0.08 0.786,-0.04 0.594,-0.04 0.626,-0.16 0.43,-0.08 0.144,0.03 -0.173,0.04 -0.242,-0.06 h -0.188 -0.151 -0.287 -0.335 -0.7 l -0.927,-0.11 -1.19,-0.01 -1.574,0.01 -1.926,0.01 -2.027,0.01 -2.024,0.11 -2.027,0.23 -1.778,0.35 -1.539,0.23 -1.537,0.19 -1.485,0.29 -1.199,0.3 -0.648,0.18 -0.431,0.03 -0.013,0.03 0.492,-0.09 0.12,-0.16 -0.209,0.04 -0.284,-0.24 -0.193,-0.27 -0.485,-0.18 -0.283,-0.32 -0.138,-0.31 -0.298,-0.26 -0.314,-0.37 -0.206,-0.61 -0.273,-0.83 -0.291,-0.76 -0.157,-1 -0.036,-1.12 -0.029,-1.13 0.182,-1.25 0.299,-1.16 0.5,-1.09 0.49,-0.95 0.56,-0.71 0.62,-0.54 0.701,-0.44 0.598,-0.28 0.432,-0.07 0.547,0.13 0.514,0.29 0.603,0.24 0.611,0.49 0.954,0.46 1.205,0.74 1.048,1.09 0.991,1.07 0.902,1.19 0.679,1.31 0.646,1.16 0.086,1.1 0.257,0.91 0.519,0.77 0.195,0.6 -0.039,0.45 -0.038,0.32 0.074,-0.26 -0.207,-0.38 -0.291,-0.44 -0.272,-0.84 -0.747,-1.24 -4.218,1.47 v 0"
           inkscape:connector-curvature="0"
           style="fill:none;stroke:#000000;stroke-width:4;stroke-linecap:butt;stroke-linejoin:round" />
      </g>
      <g
         id="g12">
        <path
           id="path10"
           d="m 125.249,1697.32 -0.783,-2.6 -0.527,-2.74 0.75,0.54 -0.265,0.52 -0.163,0.42 0.278,0.31 0.447,0.2 h 1.007 l 1.531,-0.2 1.979,-0.39 2.057,-0.42 1.736,-0.41 1.588,-0.47 1.974,-0.43 2,-0.32 1.723,-0.15 1.468,-0.1 h 1.335 l 1.146,0.11 1.026,0.2 0.676,0.2 0.341,0.16 0.031,0.12 -0.128,-0.02 -0.316,-0.05 -0.646,-0.19 -0.688,-0.06 -0.992,-0.16 -1.558,-0.23 -1.728,-0.12 -1.414,-0.22 -1.197,-0.1 -1.28,-0.07 -1.128,-0.06 -1.044,-0.06 -0.735,-0.07 -0.391,-0.08 -0.038,-0.08 0.068,-0.08 0.263,0.02 0.385,-0.03 0.218,0.01 0.358,0.01 0.387,-0.31 0.424,-0.45 0.702,-0.48 0.51,-0.7 0.632,-0.64 0.542,-0.63 0.299,-0.7 0.248,-0.74 0.165,-0.67 0.159,-0.72 -0.026,-0.81 -0.234,-0.75 -0.43,-0.79 -0.41,-1.01 -0.503,-0.88 v 0 l -1.525,-0.79 v 0 0"
           inkscape:connector-curvature="0"
           style="fill:none;stroke:#000000;stroke-width:4;stroke-linecap:butt;stroke-linejoin:round" />
      </g>
      <g
         id="g16">
        <path
           id="path14"
           d="m 125.924,1680.31 0.541,1.14 0.435,1.26 0.245,0.09 -10e-4,-0.23 0.1,-0.04 0.62,-0.05 0.872,-0.11 1.01,0.01 1.082,-0.03 0.929,0.1 1.122,0.12 1.554,-0.18 1.759,-0.12 1.822,-0.11 1.94,-0.2 1.745,-0.32 1.52,-0.32 1.319,-0.19 1.276,-0.39 v 0 0"
           inkscape:connector-curvature="0"
           style="fill:none;stroke:#000000;stroke-width:4;stroke-linecap:butt;stroke-linejoin:round" />
      </g>
      <g
         id="g20">
        <path
           id="path18"
           d="m 145.539,1666.68 -0.242,-0.78 0.064,-0.59 -0.2,0.52 -0.079,0.08 -0.045,-0.08 -0.203,0.04 -0.05,0.04 -0.163,-0.09 -0.389,-0.32 -0.645,-0.37 -0.803,-0.25 -0.875,-0.44 -1.253,-0.53 -1.514,-0.54 -1.39,-0.75 -1.278,-0.73 -1.397,-0.46 -1.384,-0.42 -1.252,-0.51 -1.109,-0.29 -0.949,-0.17 -0.826,-0.16 -0.641,-0.19 -0.631,0.01 -0.077,-0.15 0.506,-0.01 0.286,0.09 0.118,0.08 0.128,0.03 0.173,-0.02 0.264,0.1 0.255,-0.03 0.248,-0.14 0.829,-0.15 1.502,-0.16 1.64,-0.36 1.815,-0.35 2.072,-0.22 2.173,-0.17 1.981,-0.16 1.825,-0.14 1.739,-0.14 1.326,-0.04 0.984,-0.04 0.644,-0.04 v 0 0 0"
           inkscape:connector-curvature="0"
           style="fill:none;stroke:#000000;stroke-width:4;stroke-linecap:butt;stroke-linejoin:round" />
      </g>
      <g
         id="g24">
        <path
           id="path22"
           d="m 136.524,1663.26 -0.185,-0.2 0.264,-0.37 0.464,-0.24 0.364,-0.55 0.315,-0.62 0.191,-0.97 0.167,-1.18 0.154,-1.18 -0.406,-1.38 -0.451,-1.69 -0.566,-1.74 v 0"
           inkscape:connector-curvature="0"
           style="fill:none;stroke:#000000;stroke-width:4;stroke-linecap:butt;stroke-linejoin:round" />
      </g>
      <g
         id="g28">
        <path
           id="path26"
           d="m 129.535,1638.81 0.014,0.42 0.276,0.68 0.264,0.65 0.209,0.49 0.553,0.56 0.676,0.56 0.644,0.76 0.821,0.77 0.731,0.56 0.742,0.47 0.615,0.59 0.512,0.41 0.557,0.14 0.473,0.03 0.286,-0.05 0.23,-0.25 0.249,-0.33 0.306,-0.43 0.427,-0.68 0.273,-0.82 0.146,-0.87 0.237,-0.99 0.366,-1.3 0.408,-1.25 0.182,-0.96 0.142,-0.71 0.24,-0.65 0.278,-0.49 0.283,-0.25 0.164,-0.14 -0.178,0.01 0.104,0.12 0.364,0.15 0.329,0.3 0.495,0.44 0.469,0.58 0.539,0.76 0.833,0.84 0.871,0.95 0.63,0.93 0.416,1.04 0.275,0.94 0.25,0.8 -0.075,0.73 -0.185,0.53 v 0 l -0.272,0.43 v 0"
           inkscape:connector-curvature="0"
           style="fill:none;stroke:#000000;stroke-width:4;stroke-linecap:butt;stroke-linejoin:round" />
      </g>
      <g
         id="g32">
        <path
           id="path30"
           d="m 132.251,1622.99 -1.29,-2.93 -1.918,-2.99 -0.715,1.2 0.526,0.33 0.306,0.3 0.4,0.25 0.291,0.18 0.177,0.11 0.327,0.03 0.187,-0.02 0.179,0.04 0.346,0.03 0.583,0.05 0.736,-0.06 0.838,0.05 1.007,0.18 1.128,0.21 1.203,0.33 1.185,0.33 1.234,0.22 1.119,0.07 0.864,0.06 0.766,-0.06 0.764,-0.07 0.617,-0.29 0.39,-0.28 0.354,-0.35 0.317,-0.46 0.142,-0.66 0.053,-0.84 -0.132,-0.88 -0.217,-1.01 -0.293,-1.2 -0.483,-1.31 -0.683,-1.28 v 0 l -1.184,-2.09 v 0"
           inkscape:connector-curvature="0"
           style="fill:none;stroke:#000000;stroke-width:4;stroke-linecap:butt;stroke-linejoin:round" />
      </g>
      <g
         id="g36">
        <path
           id="path34"
           d="m 138.258,1618.17 0.474,0.67 0.304,0.28 -0.376,-0.67 -0.192,-0.79 -0.187,-0.88 -0.273,-0.72 -0.32,-0.75 -0.112,-0.7 -0.065,-0.63 -0.151,-0.55 -0.162,-0.57 v 0"
           inkscape:connector-curvature="0"
           style="fill:none;stroke:#000000;stroke-width:4;stroke-linecap:butt;stroke-linejoin:round" />
      </g>
      <g
         id="g40">
        <path
           id="path38"
           d="m 130.071,1619.95 h -0.19 l 0.032,-0.16 -0.05,-0.02 -0.146,-0.45 -0.026,-0.57 v -0.73 l 0.012,-0.88 0.017,-0.97 -0.099,-1.15 -0.109,-1.32 -0.114,-1.42 -0.324,-1.56 v 0 0"
           inkscape:connector-curvature="0"
           style="fill:none;stroke:#000000;stroke-width:4;stroke-linecap:butt;stroke-linejoin:round" />
      </g>
      <g
         id="g44">
        <path
           id="path42"
           d="m 149.897,1584.53 0.667,-3.94 0.99,-3.7 0.615,0.81 -0.693,0.76 -0.572,0.61 -0.194,0.45 -0.254,0.08 -0.396,-0.07 -0.884,-0.4 -1.309,-0.63 -1.506,-0.79 -1.619,-0.88 -1.772,-0.84 -1.724,-0.79 -1.627,-0.6 -1.801,-0.72 -1.857,-0.73 -1.82,-0.82 -1.872,-0.7 -1.789,-0.58 -1.447,-0.58 -1.159,-0.46 -0.92,-0.35 -0.618,-0.36 -0.419,-0.28 -0.263,-0.07 0.199,0.01 0.368,0.07 0.316,0.02 0.315,-0.05 0.651,-0.18 1.304,-0.24 1.612,-0.16 1.659,0.07 1.452,0.01 1.677,0.12 1.915,0.14 1.945,0.02 1.938,0.22 1.815,0.23 1.746,0.22 1.621,0.09 1.496,0.18 v 0 l 2.341,0.59 v 0"
           inkscape:connector-curvature="0"
           style="fill:none;stroke:#000000;stroke-width:4;stroke-linecap:butt;stroke-linejoin:round" />
      </g>
      <g
         id="g48">
        <path
           id="path46"
           d="m 141.277,1575.4 0.324,0.84 0.234,0.54 0.048,-0.55 0.041,-0.6 0.071,-0.98 -0.045,-1.04 -0.15,-1.39 -0.37,-1.73 -0.597,-2.02 -0.847,-1.69 v 0"
           inkscape:connector-curvature="0"
           style="fill:none;stroke:#000000;stroke-width:4;stroke-linecap:butt;stroke-linejoin:round" />
      </g>
      <g
         id="g52">
        <path
           id="path50"
           d="m 132.612,1548.53 -1.28,-3.42 -1.072,-3.52 1.109,0.72 -0.077,0.62 -0.056,0.54 -0.196,0.61 0.133,0.28 -0.205,0.17 -0.026,0.02 -0.009,-0.05 -0.002,-0.04 -0.059,0.12 -0.037,0.22 -0.019,0.12 0.093,0.17 0.011,0.4 -0.006,0.55 -0.007,0.46 0.102,0.38 0.118,0.37 0.113,0.46 0.221,0.47 0.332,0.45 0.226,0.46 0.295,0.54 0.395,0.66 0.403,0.79 0.635,0.58 0.721,0.52 0.711,0.62 0.809,0.52 0.856,0.71 0.791,0.56 0.728,0.41 0.671,0.37 0.59,0.3 0.558,0.17 0.562,-0.04 0.487,-0.24 0.472,-0.23 0.393,-0.42 0.488,-0.38 0.529,-0.45 0.45,-0.54 0.322,-0.69 0.214,-0.82 0.421,-0.89 0.46,-1 0.367,-1.08 0.771,-1.13 0.525,-1.28 0.148,-1.34 0.087,-1.39 -0.135,-1.71 -0.253,-1.76 v 0 l -1.309,-3.68 v 0 0"
           inkscape:connector-curvature="0"
           style="fill:none;stroke:#000000;stroke-width:4;stroke-linecap:butt;stroke-linejoin:round" />
      </g>
      <g
         id="g56">
        <path
           id="path54"
           d="m 136.516,1523.89 h -0.338 l -0.493,0.12 -0.03,0.05 -0.062,0.11 0.026,0.27 -0.081,0.26 -0.092,0.22 0.148,0.3 0.048,0.19 0.026,0.28 0.118,0.37 0.007,0.3 0.102,0.27 0.107,0.14 0.204,0.12 0.108,0.15 0.077,0.25 0.178,0.27 -0.026,0.29 0.262,0.47 0.734,0.5 0.754,0.44 0.575,0.52 0.468,0.58 0.444,0.58 0.431,0.47 0.51,0.42 0.534,0.42 0.642,0.41 0.555,0.43 0.639,0.31 0.64,0.31 0.555,0.23 0.515,0.11 0.59,0.1 0.554,-0.09 0.421,-0.08 0.57,-0.27 0.255,-0.42 -0.043,-0.38 0.125,-0.39 0.203,-0.62 0.25,-0.74 0.165,-0.92 0.279,-1.22 0.2,-1.38 0.191,-1.34 0.07,-1.34 -0.05,-1.41 -0.282,-1.3 -0.399,-1.23 v 0 0 0"
           inkscape:connector-curvature="0"
           style="fill:none;stroke:#000000;stroke-width:4;stroke-linecap:butt;stroke-linejoin:round" />
      </g>
      <g
         id="g60">
        <path
           id="path58"
           d="m 137.649,1508.97 -0.452,-0.54 -0.408,-0.55 0.144,0.48 0.242,0.12 0.291,0.11 0.292,0.28 0.426,0.11 0.504,0.3 0.646,0.22 0.715,0.39 0.811,0.41 0.733,0.19 0.814,0.24 0.757,0.25 0.629,0.15 0.548,0.02 0.738,0.01 1.02,-0.08 0.91,-0.18 0.722,-0.38 0.754,-0.57 0.81,-0.49 0.894,-0.64 0.815,-0.74 0.595,-0.83 0.239,-0.69 -0.035,-0.81 0.077,-0.92 -0.182,-1.07 -0.699,-1.04 -0.699,-1.04 -0.861,-0.9 -1.096,-0.84 -1.177,-0.85 -1.521,-0.94 -1.361,-0.81 -1.232,-0.54 -1.21,-0.39 -1.124,-0.32 -1.183,-0.1 -0.912,0.08 -0.545,0.19 -0.545,0.24 -0.455,0.32 0.019,0.31 0.099,0.17 0.347,0.16 0.412,0.13 -0.025,0.17 -0.01,0.07 v 0 0"
           inkscape:connector-curvature="0"
           style="fill:none;stroke:#000000;stroke-width:4;stroke-linecap:butt;stroke-linejoin:round" />
      </g>
      <g
         id="g64">
        <path
           id="path62"
           d="m 151.846,1491.86 -0.101,0.06 -0.65,0.13 h -0.859 l -0.752,-0.01 -0.749,-0.14 -0.887,-0.01 -1.181,-0.33 -1.624,-0.46 -1.782,-0.58 -1.549,-0.47 -1.474,-0.4 -1.712,-0.35 -1.324,-0.26 -0.924,-0.22 -0.333,-0.11 -0.038,-0.09 -0.153,0.11 0.206,-0.13 0.549,-0.01 0.303,0.11 0.171,0.11 -0.05,0.07 -0.002,0.03 0.139,-0.01 0.008,-0.06 0.061,-0.22 0.106,-0.22 0.083,-0.29 0.169,-0.23 0.1,-0.23 0.083,-0.19 0.079,-0.16 0.183,-0.36 0.216,-0.41 0.106,-0.42 -0.138,-0.38 0.055,-0.37 0.189,-0.36 -0.008,-0.36 -0.131,-0.32 0.275,-0.44 0.026,-0.6 -0.531,-0.67 -0.516,-0.72 -0.706,-0.9 -0.501,-0.74 -0.603,-0.71 -0.775,-0.9 -0.719,-0.99 -0.777,-0.84 -0.541,-0.61 -0.48,-0.32 -0.337,-0.28 -0.138,-0.22 0.204,0.06 0.149,0.21 0.301,0.22 0.43,0.31 0.348,0.2 0.452,0.13 0.632,0.17 0.854,0.27 1.042,0.38 1.143,0.39 1.293,0.59 1.32,0.41 1.344,0.35 1.118,0.24 1.021,0.1 0.877,0.09 h 0.866 v 0 l 1.473,-0.29 v 0"
           inkscape:connector-curvature="0"
           style="fill:none;stroke:#000000;stroke-width:4;stroke-linecap:butt;stroke-linejoin:round" />
      </g>
      <g
         id="g68">
        <path
           id="path66"
           d="m 134.518,1466.48 -0.444,-0.4 -0.277,-0.61 0.131,0.48 0.224,0.26 0.412,0.22 0.645,0.34 0.671,0.34 0.644,0.33 0.473,0.42 0.542,0.17 0.798,0.31 0.903,0.37 0.797,0.38 0.802,0.35 0.923,0.13 0.938,0.11 h 1.018 l 1.122,-0.09 0.856,-0.19 0.731,-0.39 0.609,-0.59 0.521,-0.71 0.416,-0.68 0.414,-0.61 0.022,-0.69 -0.204,-0.64 -0.182,-0.8 -0.239,-0.87 -0.413,-0.75 -0.568,-0.77 -0.773,-0.8 -0.879,-0.71 -0.925,-0.67 -0.888,-0.68 -1.041,-0.68 -1.151,-0.58 -1.139,-0.6 -1.018,-0.39 -0.838,-0.37 -0.709,-0.17 -0.575,-0.16 -0.486,0.02 -0.11,0.13 0.079,0.1 0.14,0.17 0.079,0.04 -0.011,0.12 0.053,0.2 v 0 0"
           inkscape:connector-curvature="0"
           style="fill:none;stroke:#000000;stroke-width:4;stroke-linecap:butt;stroke-linejoin:round" />
      </g>
      <g
         id="g72">
        <path
           id="path70"
           d="m 135.09,1449.15 h -0.205 l -0.13,-0.14 -0.211,0.01 0.203,0.02 0.208,0.01 0.198,0.01 0.195,0.01 h 0.153 0.208 l 0.501,-0.1 0.678,-0.02 h 0.782 l 0.838,0.11 0.731,0.13 0.84,0.12 0.861,0.12 0.933,0.33 1.031,0.33 1.147,0.1 1.145,-0.04 1.117,0.04 0.992,0.05 0.935,-0.04 0.735,-0.15 0.495,-0.15 0.247,-0.36 0.336,-0.34 0.23,-0.46 -0.074,-0.47 -0.07,-0.38 -0.232,-0.56 -0.424,-0.6 -0.603,-0.68 -0.14,-0.81 -0.472,-0.86 -0.892,-0.84 -0.651,-0.9 v 0 l -0.968,-1.64 v 0"
           inkscape:connector-curvature="0"
           style="fill:none;stroke:#000000;stroke-width:4;stroke-linecap:butt;stroke-linejoin:round" />
      </g>
      <g
         id="g76">
        <path
           id="path74"
           d="m 150.753,1434.19 -1.498,-3.29 -2.026,-3.41 -0.977,-0.12 -0.001,0.64 -0.363,0.38 -0.879,-0.11 -1.028,-0.26 -1.319,-0.46 -1.594,-0.67 -1.746,-0.75 -1.905,-0.77 -1.515,-0.68 -1.328,-0.38 -1.322,-0.42 -1.178,-0.55 -0.953,-0.33 -0.682,-0.19 -0.659,-0.17 -0.533,-0.3 -0.258,-0.36 -0.533,-0.32 -0.692,-0.36 -0.573,-0.52 -0.364,-0.3 -0.298,-0.13 0.11,-0.02 0.397,0.02 h 0.273 l 0.263,0.05 0.648,-0.04 1.044,-0.21 0.987,-0.25 1.146,-0.13 1.225,-0.21 1.204,-0.11 1.584,0.02 1.794,0.04 1.792,0.05 1.598,0.04 1.596,0.14 1.688,0.02 h 1.618 l 1.282,-0.01 0.789,-0.12 0.572,-0.02 0.421,-0.24 v 0 l 0.126,-0.12 v 0"
           inkscape:connector-curvature="0"
           style="fill:none;stroke:#000000;stroke-width:4;stroke-linecap:butt;stroke-linejoin:round" />
      </g>
      <g
         id="g80">
        <path
           id="path78"
           d="m 142.355,1427.28 -0.88,-2.85 -0.674,-3 -0.244,-0.21 0.305,0.66 0.144,0.33 -0.316,-0.3 -0.063,-0.49 0.175,-0.73 -0.038,-0.81 -0.081,-1.02 -0.441,-1.08 -0.045,-1.19 0.227,-1.12 0.039,-0.97 v 0 0"
           inkscape:connector-curvature="0"
           style="fill:none;stroke:#000000;stroke-width:4;stroke-linecap:butt;stroke-linejoin:round" />
      </g>
      <g
         id="g84">
        <path
           id="path82"
           d="m 134.906,1405.76 h 0.158 0.025 -0.076 l -0.076,-0.06 -0.068,-0.03 0.038,-0.04 0.103,-0.05 0.563,-0.11 0.78,-0.13 1.057,-0.12 1.271,-0.22 1.257,-0.11 1.431,-0.19 1.427,-0.08 1.265,-0.18 1.135,-0.06 1.181,0.04 1.02,-0.05 0.764,-0.07 0.604,-0.08 0.62,-0.1 v 0 l 0.6,0.02 v 0"
           inkscape:connector-curvature="0"
           style="fill:none;stroke:#000000;stroke-width:4;stroke-linecap:butt;stroke-linejoin:round" />
      </g>
      <g
         id="g88">
        <path
           id="path86"
           d="m 136.547,1410.33 -0.573,-0.17 -0.42,0.5 0.446,0.64 -0.15,0.27 -0.106,0.19 h 0.025 l 0.056,-0.14 -0.112,-0.25 0.008,-0.28 h -0.229 l 0.045,-0.15 0.043,-0.1 -0.069,-0.17 0.008,-0.25 0.015,-0.53 0.014,-0.76 0.012,-0.98 -0.108,-1.2 -0.236,-1.19 -0.243,-1.22 -0.347,-1.17 -0.336,-1.2 -0.211,-1.19 -0.389,-1.24 -0.182,-1.17 -0.035,-1.03 -0.24,-0.78 0.067,-0.65 0.092,-0.54 0.079,-0.47 v 0 0 0"
           inkscape:connector-curvature="0"
           style="fill:none;stroke:#000000;stroke-width:4;stroke-linecap:butt;stroke-linejoin:round" />
      </g>
      <g
         id="g92">
        <path
           id="path90"
           d="m 139.38,1388.12 -0.763,-3.05 -0.502,-2.77 1.124,1.31 0.343,0.78 0.382,0.65 0.68,0.64 0.738,0.43 0.646,0.4 0.594,0.2 0.642,-0.12 0.625,-0.17 0.715,-0.41 0.625,-0.51 0.482,-0.68 0.353,-0.74 0.24,-0.79 0.135,-0.84 0.046,-0.8 0.066,-0.93 -0.103,-1.14 -0.305,-1.17 -0.396,-1.23 -0.91,-1.2 -0.957,-1 -0.9,-0.73 -0.697,-0.56 -0.723,-0.32 -0.771,-0.44 -0.703,-0.42 -0.591,-0.15 -0.325,0.07 -0.367,0.18 -0.443,0.14 -0.493,0.41 -0.512,0.5 -0.441,0.58 -0.519,0.83 -0.575,0.85 -0.479,0.82 -0.327,0.84 -0.305,1.01 -0.212,1.15 0.01,1.16 0.129,1.21 0.114,1.02 0.525,0.82 0.54,0.48 0.15,0.27 0.386,-0.12 v 0 0"
           inkscape:connector-curvature="0"
           style="fill:none;stroke:#000000;stroke-width:4;stroke-linecap:butt;stroke-linejoin:round" />
      </g>
      <g
         id="g96">
        <path
           id="path94"
           d="m 137.539,1366.92 -0.767,-0.52 -1.205,-0.81 -0.341,-0.41 0.406,0.26 0.218,0.18 0.169,0.06 0.116,-0.08 0.29,-0.09 0.162,-0.1 0.085,-0.09 0.158,-0.29 0.308,-0.16 0.489,-0.11 0.517,-0.3 0.711,-0.22 1.037,-0.09 1.002,-0.07 1.001,-0.05 1.245,0.04 1.134,0.06 1.107,0.04 0.972,0.14 0.934,0.24 0.545,0.03 0.319,-0.01 0.303,-0.04 0.014,-0.04 0.026,0.06 -0.08,0.18 -0.392,0.01 -0.289,-0.11 -0.167,-0.03 -0.187,-0.02 -0.424,-0.15 -0.488,-0.12 -0.739,0.01 -1.115,0.04 -1.349,0.04 -1.327,0.03 -1.31,0.01 -1.437,-0.1 -1.453,0.09 -1.392,0.12 -1.428,0.23 -1.152,0.01 -1.121,-0.13 -0.946,-0.27 -0.663,-0.05 -0.278,-0.23 0.042,-0.24 0.335,-0.18 0.106,-0.26 -0.148,-0.39 -0.084,-0.45 -0.003,-0.61 -0.244,-0.52 -0.17,-0.58 -0.162,-0.59 -0.141,-0.75 -0.012,-0.79 0.011,-0.69 0.131,-0.42 0.241,-0.33 0.459,-0.13 0.384,-0.13 0.325,-0.26 0.794,-0.3 0.931,-0.16 0.956,0.05 1.175,0.28 0.769,0.44 0.674,0.28 0.89,0.52 0.848,0.58 0.258,0.68 0.355,0.35 0.286,0.4 0.149,0.33 0.152,0.18 -0.041,0.25 0.004,0.11 0.021,0.08 -0.009,-0.1 -0.087,-0.09 0.008,-0.07 0.076,-0.09 -0.121,-0.04 -0.042,-0.19 0.35,-0.25 0.556,-0.38 0.783,-0.68 0.956,-0.71 0.71,-0.8 0.582,-0.71 0.62,-0.65 0.708,-0.73 0.619,-0.74 0.591,-0.61 0.769,-0.56 0.637,-0.49 0.172,-0.49 0.301,-0.33 0.174,-0.18 0.05,-0.16 0.058,-0.16 -0.096,-0.15 -0.206,-0.04 v 0"
           inkscape:connector-curvature="0"
           style="fill:none;stroke:#000000;stroke-width:4;stroke-linecap:butt;stroke-linejoin:round" />
      </g>
      <g
         id="g100">
        <path
           id="path98"
           d="m 164.834,1731.97 0.113,0.06 h 0.087 l -0.006,0.15 -0.005,0.08 -0.095,0.16 -0.022,0.12 -0.007,0.2 -0.107,0.11 -0.008,0.12 0.006,0.14 0.012,0.11 -0.098,0.18 -0.001,0.09 -0.262,-0.04 0.035,-0.05 0.178,-0.11 0.061,-0.08 -0.015,-0.08 -0.211,-0.03 -0.039,-0.07 0.049,-0.07 0.036,-0.06 0.015,-0.19 0.117,-0.47 0.132,-0.8 -0.084,-1.02 -0.022,-1.14 -0.024,-1.2 -0.246,-1.03 -0.14,-1.12 -0.119,-1.4 -0.104,-1.57 -0.196,-1.74 -0.202,-1.84 -0.088,-1.92 -0.068,-1.89 0.044,-1.74 -0.594,-1.73 -0.129,-1.78 0.477,-1.76 0.001,-1.75 -0.18,-1.65 0.107,-1.54 -0.094,-1.53 -0.329,-1.53 -0.031,-1.67 0.23,-1.64 0.267,-1.51 0.258,-1.47 0.021,-1.77 -0.02,-1.8 -0.041,-1.86 -0.149,-2.14 -0.262,-2.41 -0.27,-2.36 -0.142,-2.16 0.228,-2.14 0.068,-2.05 -0.184,-1.62 0.008,-1.38 0.13,-1.27 0.369,-1.12 -0.057,-1.13 -0.336,-1.1 0.056,-1.17 0.321,-1.23 0.144,-1.27 0.113,-1.47 0.097,-1.57 0.087,-1.75 0.079,-1.86 0.186,-1.86 0.085,-1.99 0.075,-1.99 0.07,-1.86 0.179,-1.76 0.088,-1.64 0.296,-1.79 0.328,-1.86 -0.008,-1.89 0.058,-1.69 0.053,-1.53 0.168,-1.5 0.194,-1.53 -0.019,-1.57 -0.039,-1.49 -0.04,-1.49 0.076,-1.4 0.102,-1.29 v -1.37 l -0.007,-1.42 0.318,-1.63 0.143,-1.81 0.111,-1.92 0.315,-1.73 0.097,-1.73 -0.255,-1.69 0.028,-1.71 0.061,-1.69 0.087,-1.67 0.101,-1.77 -0.111,-1.9 -0.02,-2.13 0.097,-1.99 0.224,-2 0.131,-1.98 -0.107,-2.08 0.186,-2 0.102,-1.67 -0.02,-1.55 0.293,-1.64 0.119,-1.75 0.093,-1.58 0.08,-1.53 0.076,-1.36 0.076,-1.05 0.182,-0.97 0.096,-1.02 0.088,-1.09 0.086,-1.14 0.194,-1.17 0.21,-1.1 0.092,-1.08 -0.031,-1.16 -0.046,-1.31 -0.046,-1.34 0.073,-1.51 0.321,-1.63 0.026,-1.85 -0.121,-1.94 0.183,-1.65 0.096,-1.4 -0.019,-1.11 0.079,-0.96 0.311,-0.96 0.238,-1.21 0.225,-1.24 -0.011,-1.44 0.062,-1.52 0.171,-1.63 -0.029,-2.02 -0.045,-2.12 -0.046,-2.07 0.069,-1.98 0.207,-2.02 0.008,-1.9 0.096,-1.84 -0.01,-1.62 -0.129,-1.46 0.187,-1.44 0.125,-1.41 0.338,-1.31 0.022,-1.23 -0.021,-1.15 0.177,-1.17 0.095,-1.31 -0.02,-1.46 -0.032,-1.71 -0.034,-1.78 -0.029,-1.75 -0.018,-1.98 -0.008,-2.13 v -2.32 l 0.002,-2.3 -0.104,-2.34 -0.118,-2.21 -0.12,-1.95 -0.003,-1.74 0.022,-1.7 0.025,-1.46 0.135,-1.4 0.035,-1.53 -0.09,-1.75 -0.005,-1.94 0.107,-1.99 0.12,-2.07 0.116,-2.28 -0.004,-2.31 0.085,-2.36 0.092,-2.62 -0.019,-2.58 0.078,-2.49 0.198,-2.6 0.107,-2.46 -0.127,-2.37 -0.044,-2.23 0.075,-2.13 0.101,-1.92 0.112,-1.98 0.113,-1.96 0.11,-1.81 0.321,-1.76 0.232,-1.99 0.212,-2.01 0.082,-1.82 0.055,-1.83 0.374,-2.06 -0.016,-2.26 -0.166,-2.26 -0.181,-2.43 -0.281,-2.55 -0.27,-2.55 -0.24,-2.59 0.009,-2.57 -0.394,-2.24 -0.189,-2.12 0.054,-2.1 -0.018,-2.23 -0.035,-2.19 -0.056,-2.1 0.148,-1.98 0.16,-1.88 0.034,-1.97 0.001,-1.94 0.091,-1.76 -0.227,-1.88 0.062,-1.88 0.209,-1.98 0.122,-2 0.109,-2.11 -0.228,-2.12 -0.163,-1.84 -0.044,-1.61 -0.014,-1.47 -0.109,-1.18 -0.104,-1.02 -0.098,-0.95 0.02,-1.01 0.038,-0.88 -0.081,-0.6 -0.089,-0.45 -0.097,-0.38 -0.098,-0.44 -0.096,-0.48 0.015,-0.54 0.031,-0.66 -0.082,-0.7 -0.097,-0.81 v -0.73 l 0.013,-0.76 0.013,-0.75 -0.105,-0.65 -0.006,-0.6 -0.105,-0.58 -0.004,-0.5 0.232,-0.26 -0.146,0.2 0.087,0.14 0.146,0.14 0.036,0.17 -0.048,0.08 0.07,0.07 0.039,0.11 0.162,-0.02 -0.007,0.11 -0.133,0.21 -1.874,2.86 v 0"
           inkscape:connector-curvature="0"
           style="fill:none;stroke:#000000;stroke-width:4;stroke-linecap:butt;stroke-linejoin:round" />
      </g>
      <g
         id="g112">
        <path
           id="path110"
           d="m 212.488,1043.3 0.046,0.24 -0.154,0.11 -0.04,-0.01 h -0.041 l 0.097,-0.01 -0.137,-0.01 -0.129,-0.02 -0.106,-0.02 h -0.142 0.007 l 0.059,0.01 -0.009,0.07 -0.043,0.11 -0.039,0.05 -0.073,0.02 -0.009,-0.07 -0.002,-0.08 -0.017,0.06 0.07,0.03 0.023,0.02 0.071,0.01 -0.009,0.01 h -0.007 l 0.083,-0.01 h 0.307 l 0.281,-0.01 0.136,0.01 h 0.25 l 0.692,-0.11 1.021,-0.13 0.959,-0.12 0.743,-0.11 0.909,-0.09 1.158,0.12 1.214,0.05 1.15,-0.08 1.098,-0.09 1.073,-0.1 1.047,-0.11 1.223,-0.11 1.194,0.01 0.978,-0.09 0.978,-0.09 1.306,0.01 1.442,0.13 1.349,0.03 0.988,0.02 1.153,0.01 1.441,0.1 1.267,0.11 h 1.228 l 1.506,0.08 1.553,-0.01 1.688,-0.02 1.703,-0.02 1.508,-0.13 1.481,-0.23 1.301,-0.02 1.342,-0.1 1.077,0.02 1.205,0.03 1.192,-0.08 0.941,-0.09 h 1.123 l 1.163,0.02 1.282,0.01 1.388,0.12 1.352,0.02 1.388,0.01 1.206,-0.01 1.133,-0.11 1.382,-0.03 h 1.224 1.216 1.212 l 1.347,-0.1 h 1.185 l 1.122,-0.11 1.2,-0.1 h 1.354 l 1.305,0.01 1.071,0.02 0.989,-0.08 1.187,-0.1 1.194,-0.12 1.078,-0.11 0.741,-0.1 0.463,-0.09 0.607,-0.19 0.927,-0.1 1.061,-0.1 0.595,-0.09 0.878,0.03 1.141,0.15 0.95,0.28 0.891,0.15 0.984,0.12 0.947,0.1 0.89,0.2 0.963,0.18 1.006,0.08 1.004,-0.04 0.895,0.04 0.673,-0.04 0.5,-0.03 0.671,-0.04 0.598,-0.01 0.665,-0.12 0.414,-0.01 0.547,-0.09 0.801,-0.11 0.451,0.01 0.361,0.03 0.266,0.02 0.21,-0.08 h 0.181 l 0.403,0.01 0.684,0.01 h 0.674 l 0.535,0.01 h 0.456 0.347 l 0.025,0.01 0.387,-0.01 0.856,0.1 h 0.649 l 0.174,-0.12 h 0.111 l 0.28,-0.01 0.25,-0.11 h 0.219 l 0.436,-0.1 h 0.514 l 0.239,-0.12 -0.248,0.04 0.059,0.02 0.306,0.01 0.09,0.02 0.082,0.01 h 0.122 0.2 0.217 l 0.223,-0.01 h 0.297 l 0.415,-0.01 0.337,0.12 h 0.388 l 0.375,0.11 0.481,0.11 0.302,0.12 -0.291,0.1 -0.167,-0.06 -0.151,-0.07 -0.215,-0.1 -0.157,-0.07 -0.463,-0.26 -0.79,-0.45 v 0"
           inkscape:connector-curvature="0"
           style="fill:none;stroke:#000000;stroke-width:4;stroke-linecap:butt;stroke-linejoin:round" />
      </g>
      <g
         id="g116">
        <path
           id="path114"
           d="m 309.403,1039.68 0.17,-0.1 0.023,0.17 -0.008,0.28 0.1,0.08 0.09,0.18 0.141,0.13 0.088,0.29 0.208,0.21 0.103,0.2 -0.026,0.06 -0.015,-0.07 -0.071,-0.07 -0.01,-0.07 0.004,-0.05 -0.084,-0.03 h -0.112 -0.02 l -0.071,0.02 0.123,-0.03 0.092,-0.03 0.159,0.1 -0.131,0.1 0.057,0.12 0.256,0.1 0.049,0.16 0.152,0.14 0.076,-0.04 0.175,0.05 0.131,0.11 0.004,-0.04 -0.09,-0.03 -0.047,-0.04 -0.041,0.07 0.095,0.01 -0.003,-0.11 -0.247,0.02 0.074,-0.01 h 0.118 l 0.064,-0.07 -0.029,-0.02 -0.137,0.08 0.01,0.02 0.035,-0.04 0.036,-0.03 -0.126,-0.01 -0.061,-0.08 -0.039,-0.02 -0.053,-0.18 -0.203,-0.38 -0.24,-0.61 -0.344,-0.82 -0.336,-0.92 -0.442,-0.79 -0.411,-0.78 -0.488,-0.94 -0.611,-0.97 -0.488,-1.04 -0.454,-1.02 -0.094,-1.2 -0.374,-1.31 -0.862,-1.31 -0.82,-1.53 -0.836,-1.44 -0.783,-1.47 -0.859,-1.44 -1.057,-1.53 -1.172,-1.65 -1.072,-1.69 -0.8,-1.66 -0.529,-1.43 -0.586,-1.23 -0.593,-1.4 -0.1,-1.53 -0.507,-1.51 -1.111,-1.57 -0.953,-1.61 -0.801,-1.65 -0.748,-1.62 -0.629,-1.55 -0.27,-1.42 -0.44,-1.246 -0.584,-1.133 -0.407,-1.158 -0.292,-1.175 -0.419,-0.903 -0.437,-0.656 -0.123,-0.551 -0.223,-0.265 -0.107,-0.238 -0.023,-0.12 -0.021,-0.134 -0.044,-0.089 0.041,-0.131 0.031,-0.076 -0.283,-0.071 -0.033,0.003 0.179,0.002 0.027,0.038 -0.026,0.036 0.015,-0.065 0.004,0.058 0.089,0.002 0.014,0.055 0.074,0.101 0.163,0.027 -0.012,0.08 0.079,0.227 0.113,0.02 0.08,-0.011 -0.016,0.094 -0.13,0.184 v 0"
           inkscape:connector-curvature="0"
           style="fill:none;stroke:#000000;stroke-width:4;stroke-linecap:butt;stroke-linejoin:round" />
      </g>
      <g
         id="g120">
        <path
           id="path118"
           d="m 211.547,1040.18 0.051,0.02 -0.299,0.02 -0.101,0.02 h -0.083 l 0.031,0.01 h 0.099 0.063 l 0.196,-0.01 0.065,0.09 0.051,0.02 0.047,0.07 0.124,0.02 -0.013,0.13 h 0.089 l 0.077,-0.02 0.1,-0.02 0.036,-0.01 -0.187,-0.01 -0.089,-0.08 -0.157,-0.03 -0.127,-0.01 0.002,-0.01 0.19,-0.07 0.131,-0.01 h -0.103 l 0.076,-0.13 0.067,-0.16 0.112,-0.36 0.33,-0.6 0.586,-0.76 0.273,-0.76 0.079,-0.73 0.345,-0.77 0.282,-0.81 0.575,-0.72 0.402,-0.81 0.256,-1.01 0.449,-1.04 0.586,-0.96 0.469,-1.08 0.456,-1.12 0.339,-1.21 0.426,-1.31 0.662,-1.22 0.683,-1.28 0.572,-1.28 0.434,-1.45 0.528,-1.4 0.747,-1.26 0.664,-1.12 0.75,-0.87 0.839,-0.92 0.762,-1.01 0.933,-1.22 0.869,-1.22 0.518,-1.13 0.423,-1.14 0.427,-1.27 0.243,-1.43 0.243,-1.52 0.165,-1.63 0.082,-1.73 0.106,-1.81 0.028,-1.715 0.155,-1.438 -0.035,-1.14 0.075,-0.966 0.218,-0.488 0.228,-0.093 0.21,0.135 0.114,0.251 0.169,0.175 0.009,0.143 -0.044,0.055 0.138,-0.099 0.136,-0.087 0.124,-0.092 -0.126,-0.298 0.069,-0.198 0.096,0.077 -0.018,-0.142 0.033,-0.043 0.035,10e-4 -0.273,0.025 -0.073,-0.019 -0.047,-0.013 0.069,-0.066 0.09,0.083 0.084,-0.012 0.064,0.005 -0.091,0.003 0.013,-0.001 0.028,-0.012 -0.06,0.056 0.007,0.031 0.089,0.013 0.177,-0.114 0.252,-0.223 0.265,-0.375 0.351,-0.25 0.207,-0.319 0.169,-0.292 v 0"
           inkscape:connector-curvature="0"
           style="fill:none;stroke:#000000;stroke-width:4;stroke-linecap:butt;stroke-linejoin:round" />
      </g>
      <g
         id="g124">
        <path
           id="path122"
           d="m 232.423,992.053 -0.124,0.238 -0.01,0.029 -0.074,-0.021 -0.181,0.01 0.092,-0.036 0.178,-0.072 0.24,-0.043 0.199,-0.02 0.292,-0.094 0.453,-0.117 0.361,0.003 0.571,-0.079 0.711,0.12 0.852,0.035 0.919,0.026 1.003,0.016 1.094,0.005 1.161,0.215 1.254,0.124 1.239,0.112 1.572,0.196 2.155,-0.015 2.48,0.059 2.366,0.192 2.209,0.097 2.001,0.092 1.817,0.089 1.647,0.086 1.519,-0.023 1.417,-0.034 1.43,0.072 1.306,-0.017 1.109,-0.016 1.089,-0.015 1.157,-0.011 1.225,-0.007 1.262,-0.002 1.378,0.109 1.325,0.234 1.202,0.137 1.42,0.214 1.337,0.227 0.984,0.333 0.85,0.091 0.666,0.058 0.458,0.05 0.33,0.046 0.265,-0.056 0.008,0.066 -0.088,-0.15 0.111,-0.041 0.096,-0.019 -0.042,-0.142 0.232,0.01 0.324,-0.103 0.348,0.027 0.233,0.036 0.233,-0.075 0.184,0.018 0.101,0.02 0.226,0.014 0.095,0.011 -0.038,0.006 -0.096,10e-4 -0.195,-0.002 -0.041,-0.007 0.1,-0.064 0.074,-0.101 0.009,0.062 -0.146,0.047 -0.044,-0.05 0.102,-0.006 0.058,0.005 0.221,0.053 0.275,-0.053 0.297,0.103 0.192,0.014 0.061,0.004 0.04,-0.002 -0.026,-0.006 0.019,-0.008 -0.032,-0.006 0.054,-0.007 -0.002,-0.004 h -0.069 v 0"
           inkscape:connector-curvature="0"
           style="fill:none;stroke:#000000;stroke-width:4;stroke-linecap:butt;stroke-linejoin:round" />
      </g>
      <g
         id="g128">
        <path
           id="path126"
           d="m 287.247,1071.32 -0.107,-0.73 -0.35,-0.52 0.286,0.13 -0.06,0.13 -0.149,0.12 0.07,0.08 0.063,-0.09 0.041,-0.1 0.153,0.01 0.047,0.01 h -0.069 l 0.065,-0.08 0.016,-0.17 0.112,-0.34 0.12,-0.49 -0.002,-0.58 -0.02,-0.54 0.189,-0.61 -0.219,-0.7 -0.037,-0.79 0.305,-0.97 0.033,-1.12 -0.113,-1.09 -0.131,-1.23 -0.134,-1.46 -0.125,-1.67 -0.005,-1.59 -0.088,-1.78 -0.313,-1.8 -0.123,-1.51 0.017,-1.15 -0.069,-0.86 -0.18,-0.72 -0.083,-0.75 0.035,-0.84 -0.06,-0.9 -0.189,-0.87 -0.332,-0.59 -0.112,-0.44 0.028,-0.42 -0.073,-0.18 -0.078,0.07 0.037,0.09 0.031,0.12 0.101,0.14 0.016,0.07 -0.002,0.01 0.125,-0.03 0.07,-0.04 0.086,-0.05 -0.009,0.04 0.192,-0.01 0.082,0.08 -0.104,0.11 v 0 0"
           inkscape:connector-curvature="0"
           style="fill:none;stroke:#000000;stroke-width:4;stroke-linecap:butt;stroke-linejoin:round" />
      </g>
      <g
         id="g132">
        <path
           id="path130"
           d="m 284.622,1108.92 -0.292,-0.55 -0.443,-0.31 0.444,0.66 0.214,0.3 0.252,0.35 0.216,0.47 0.393,0.4 0.532,0.27 0.416,0.36 0.39,0.25 0.321,0.41 0.435,0.45 0.482,0.26 0.237,0.24 0.495,0.09 0.363,0.22 0.364,0.03 0.403,0.12 0.652,0.04 0.541,0.07 0.451,0.08 0.427,-0.02 0.432,-0.13 0.719,-0.14 0.915,-0.02 0.657,-0.23 0.411,-0.31 0.549,-0.51 0.533,-0.69 0.195,-0.79 0.356,-0.62 0.384,-0.77 0.214,-0.89 0.209,-0.97 0.118,-1.06 0.019,-1.07 -0.084,-1.11 -0.291,-1.12 -0.177,-1.19 -0.357,-1.2 -0.451,-1.17 -0.54,-1.16 -0.522,-1.16 -0.591,-1.24 -0.687,-1.26 -0.694,-1.08 -0.956,-0.99 -0.882,-1.03 -0.969,-0.93 -1.033,-0.91 -0.828,-0.96 -1.074,-0.93 -1.23,-0.77 -1.345,-0.64 -1.142,-0.56 -0.884,-0.23 -0.674,0.02 -0.551,0.23 -0.368,0.31 -0.43,0.57 -0.524,0.66 -0.598,0.72 -0.627,0.75 -0.442,0.8 -0.416,0.85 -0.637,0.92 -0.491,0.86 -0.222,0.87 -0.603,0.94 -0.488,1.03 -0.129,1.02 -0.078,1.05 0.133,0.92 0.24,0.84 0.317,0.92 0.63,0.87 0.72,0.86 0.886,0.86 1.164,0.97 1.256,1.23 1.241,1.19 1.359,1.02 0.933,0.82 0.581,0.63 -0.36,0.88 v 0"
           inkscape:connector-curvature="0"
           style="fill:none;stroke:#000000;stroke-width:4;stroke-linecap:butt;stroke-linejoin:round" />
      </g>
      <g
         id="g136">
        <path
           id="path134"
           d="m 280.352,1029.2 -0.232,-0.77 -0.089,-0.72 0.389,0.18 -0.061,0.29 -0.02,0.14 -0.096,0.1 -0.113,0.06 -0.122,-0.11 -0.043,-0.13 -0.106,-0.17 -0.139,-0.06 -0.095,-0.14 -0.143,-0.01 -0.052,-0.29 -0.56,-0.44 -0.586,-0.69 -0.556,-0.8 -0.659,-0.67 -0.611,-0.59 -0.572,-0.65 -0.339,-0.66 -0.478,-0.7 -0.721,-0.71 -0.575,-0.75 -0.52,-0.82 -0.52,-0.72 -0.209,-0.52 0.048,-0.15 0.271,0.06 0.273,0.04 0.33,-0.02 0.294,0.08 0.439,-0.02 0.623,-0.08 1.244,-0.12 1.392,0.18 1.025,0.34 0.995,0.22 0.889,0.21 1.144,0.07 1.015,-0.05 v 0 l -2.475,2.78 v 0"
           inkscape:connector-curvature="0"
           style="fill:none;stroke:#000000;stroke-width:4;stroke-linecap:butt;stroke-linejoin:round" />
      </g>
      <g
         id="g140">
        <path
           id="path138"
           d="m 236.137,1028.47 0.499,0.6 1.102,0.68 0.943,0.34 0.431,0.25 0.358,0.08 0.448,0.19 0.502,0.24 0.342,-0.08 0.148,-0.09 0.04,-0.3 0.156,-0.4 0.334,-0.29 0.169,-0.37 0.031,-0.39 0.04,-0.39 0.166,-0.47 0.083,-0.58 0.195,-0.58 0.213,-0.56 0.322,-0.44 0.424,-0.39 0.327,-0.51 0.197,-0.45 -0.061,-0.42 -0.2,-0.51 -0.219,-0.46 -0.305,-0.45 -0.268,-0.52 -0.455,-0.56 -0.563,-0.46 -0.636,-0.44 -0.721,-0.43 -0.718,-0.33 -0.574,-0.22 -0.502,-0.09 -0.761,-0.08 -1.054,-0.11 -1.135,0.32 -0.894,0.33 -0.595,0.16 -0.389,0.43 -0.469,0.53 -0.014,0.6 0.267,0.77 0.128,0.92 0.029,0.87 0.068,0.93 v 0"
           inkscape:connector-curvature="0"
           style="fill:none;stroke:#000000;stroke-width:4;stroke-linecap:butt;stroke-linejoin:round" />
      </g>
      <g
         id="g144">
        <path
           id="path142"
           d="m 160.825,1149.43 -0.756,-2.51 -0.963,-2.64 0.406,1.33 0.11,0.15 0.054,0.19 0.047,0.19 0.026,0.14 0.023,0.08 -0.321,0.03 -0.006,-0.06 -0.066,0.02 0.039,-0.02 0.104,0.02 -0.01,0.08 h 0.016 l -0.022,0.08 h 0.099 l 0.102,0.09 h 0.215 l 0.061,-0.01 0.048,-0.01 0.087,-0.13 0.462,-0.01 0.888,-0.11 1.246,-0.11 1.46,-0.1 1.464,-0.22 1.724,-0.1 1.941,-0.19 2.493,-0.2 2.386,-0.08 1.935,-0.17 1.954,-0.06 2.014,-0.05 2.022,0.04 1.893,-0.17 1.771,-0.09 2.126,0.01 2.204,-0.09 1.83,-0.1 1.655,-0.2 1.759,-0.22 1.947,-0.33 1.816,-0.23 1.468,-0.19 1.264,-0.17 1.452,-0.16 1.584,-0.06 1.444,-0.05 1.001,-0.05 0.593,0.06 0.44,-0.06 0.392,0.03 0.175,0.01 -0.133,0.01 v 0 l -0.299,-0.12 v 0"
           inkscape:connector-curvature="0"
           style="fill:none;stroke:#000000;stroke-width:4;stroke-linecap:butt;stroke-linejoin:round" />
      </g>
      <g
         id="g148">
        <path
           id="path146"
           d="m 212.084,1148.03 0.122,0.17 0.185,0.29 0.15,0.27 0.205,0.06 0.328,0.29 0.437,0.43 0.339,0.34 0.257,0.36 0.354,0.37 0.388,0.28 0.457,0.33 0.474,0.46 0.366,0.59 0.656,0.47 0.579,0.68 0.37,0.72 0.514,0.76 0.729,0.95 0.899,1.22 1.112,1.52 1.25,1.57 1.212,1.7 1.254,1.96 1.345,2.18 1.329,2.27 1.375,2.49 1.765,2.96 1.62,3.48 1.384,3.5 1.625,3.21 1.84,3.07 1.878,3.02 1.963,2.96 2.172,2.72 1.973,2.42 1.486,1.87 1.279,1.06 0.909,0.48 0.663,0.2 0.208,-0.17 -0.143,-0.4 -0.323,-0.56 -0.116,-0.64 0.164,-0.78 0.069,-0.91 v 0"
           inkscape:connector-curvature="0"
           style="fill:none;stroke:#000000;stroke-width:4;stroke-linecap:butt;stroke-linejoin:round" />
      </g>
      <g
         id="g152">
        <path
           id="path150"
           d="m 124.903,1205.44 0.349,-0.19 0.319,-0.02 0.266,0.03 0.26,0.04 0.29,-0.09 0.48,-0.43 0.635,-0.58 0.74,-0.8 0.509,-0.92 0.442,-0.86 0.502,-0.89 0.515,-0.98 0.518,-1.06 0.516,-1.24 0.53,-1.36 0.533,-1.45 0.634,-1.62 0.444,-1.75 0.839,-1.9 1.326,-2 1.071,-2.14 1.075,-2.25 1.05,-2.25 1.013,-2.22 0.97,-2.15 0.953,-2.12 1.154,-2.19 1.3,-2.33 1.21,-2.57 0.773,-2.42 0.914,-1.92 1.106,-1.77 0.756,-1.73 0.722,-1.53 0.611,-1.42 0.536,-1.06 0.532,-0.81 0.45,-0.74 0.493,-0.5 0.514,-0.21 0.312,-0.25 0.204,-0.11 0.099,-0.06 0.091,-0.1 0.126,-0.05 v 0 l 0.009,-0.04 v 0"
           inkscape:connector-curvature="0"
           style="fill:none;stroke:#000000;stroke-width:4;stroke-linecap:butt;stroke-linejoin:round" />
      </g>
      <g
         id="g156">
        <path
           id="path154"
           d="m 133.164,1205.87 0.03,-0.96 0.17,-1.01 0.939,0.23 0.772,-0.02 0.789,-0.17 1.226,-0.11 1.414,-0.16 1.356,-0.16 1.441,-0.17 1.722,-0.07 2.055,-0.07 2.184,-0.19 2.321,0.12 2.297,0.26 2.323,0.27 2.283,0.15 2.244,0.11 2.203,0.08 2.186,0.07 2.371,-0.05 2.441,0.05 1.983,-0.04 1.502,0.08 1.401,-0.01 1.58,-0.13 1.139,-0.02 0.623,-0.11 0.525,-0.21 0.287,-0.13 v 0"
           inkscape:connector-curvature="0"
           style="fill:none;stroke:#000000;stroke-width:4;stroke-linecap:butt;stroke-linejoin:round" />
      </g>
      <g
         id="g160">
        <path
           id="path158"
           d="m 178.777,1203.14 0.153,-0.08 0.191,0.16 -0.027,-0.24 0.088,-0.19 -0.019,-0.27 0.105,-0.33 0.199,-0.48 0.227,-0.55 0.102,-0.61 0.185,-0.8 0.2,-0.85 0.189,-0.9 0.179,-0.97 0.289,-0.96 0.184,-1.04 0.17,-1.11 0.168,-1.13 0.164,-1.29 0.387,-1.33 0.085,-1.32 0.051,-1.27 0.042,-1.06 0.365,-1.16 0.435,-1.14 0.44,-1.04 0.308,-0.8 0.162,-0.67 0.134,-0.56 0.135,-0.4 0.027,-0.29 -0.081,-0.11 0.031,0.09 v 0 0"
           inkscape:connector-curvature="0"
           style="fill:none;stroke:#000000;stroke-width:4;stroke-linecap:butt;stroke-linejoin:round" />
      </g>
      <g
         id="g164">
        <path
           id="path162"
           d="m 189.079,1177.64 0.343,0.61 0.423,0.88 -0.043,0.31 -0.049,-0.15 0.047,0.09 -0.02,0.24 0.327,0.27 0.538,0.45 0.491,0.56 0.539,0.63 0.607,0.61 0.818,0.59 0.606,0.81 0.565,0.7 0.7,0.73 0.825,0.94 0.879,0.99 0.526,1.09 0.678,0.92 0.887,0.97 1.052,1.1 1.185,1.21 1.266,1.43 1.186,1.36 1.33,1.19 0.622,0.8 -0.207,0.45 -0.19,-0.07 v 0 l -0.714,-0.82 v 0"
           inkscape:connector-curvature="0"
           style="fill:none;stroke:#000000;stroke-width:4;stroke-linecap:butt;stroke-linejoin:round" />
      </g>
      <g
         id="g168">
        <path
           id="path166"
           d="m 205.157,1201.42 0.067,0.1 0.34,0.31 0.312,0.12 0.287,0.05 0.395,0.16 0.555,0.08 0.526,-0.04 0.579,0.05 0.784,-0.03 1.002,0.08 1.228,0.09 h 1.348 l 1.69,0.09 h 2.048 l 2.26,0.32 2.132,0.25 1.893,0.01 1.747,0.08 1.801,0.08 1.819,0.08 1.444,-0.14 1.211,-0.15 1.006,-0.04 1.026,-0.13 0.901,-0.01 0.738,-0.1 0.727,0.01 0.808,-0.19 0.789,-0.11 0.7,-0.21 0.594,-0.2 v 0 l 0.999,-0.4 v 0"
           inkscape:connector-curvature="0"
           style="fill:none;stroke:#000000;stroke-width:4;stroke-linecap:butt;stroke-linejoin:round" />
      </g>
      <g
         id="g172">
        <path
           id="path170"
           d="m 190.834,1141.5 -0.44,-0.25 -0.455,-0.44 0.318,0.07 -0.008,-0.1 -0.05,0.06 -0.032,0.05 0.029,-0.23 0.013,-0.25 0.011,-0.52 0.006,-0.73 -0.117,-0.69 -0.121,-0.91 -0.02,-0.98 -10e-4,-1.02 -0.096,-1.25 -0.004,-1.32 -0.104,-1.27 0.001,-1.29 0.018,-1.38 0.019,-1.57 0.019,-1.8 0.01,-1.84 0.115,-1.69 0.119,-1.7 0.223,-1.8 0.119,-1.92 -0.013,-2.02 -0.034,-2.22 0.068,-2.27 -0.255,-1.95 -0.052,-1.8 0.2,-1.68 -0.091,-1.48 -1.101,-0.91 v 0"
           inkscape:connector-curvature="0"
           style="fill:none;stroke:#000000;stroke-width:4;stroke-linecap:butt;stroke-linejoin:round" />
      </g>
      <g
         id="g176">
        <path
           id="path174"
           d="m 190.855,1100.77 h 0.462 l 0.65,-0.27 0.498,-0.28 0.495,-0.08 0.561,-0.06 0.665,-0.18 0.773,-0.08 0.976,-0.17 1.101,-0.09 1.099,0.04 1.051,-0.06 1.096,0.04 1.11,0.03 1.369,0.13 1.539,0.13 1.469,0.12 1.284,0.11 1.303,0.1 1.514,0.08 1.586,0.08 1.387,-0.03 1.19,-0.15 1.236,-0.04 1.298,-0.25 1.321,-0.14 1.232,-0.22 1.302,-0.11 1.345,-0.18 0.894,-0.2 1.094,-0.06 1.517,-0.16 1.13,-0.08 0.89,0.06 1.034,0.05 1.273,-0.06 1.318,0.24 1.035,0.15 0.725,-0.09 0.453,-0.02 0.339,-0.02 0.351,-0.14 0.416,-0.14 0.392,-0.14 0.305,-0.01 0.114,-0.1 0.172,0.02 0.253,-0.08 0.478,-0.09 0.358,0.02 0.107,-0.11 0.286,0.02 0.608,0.03 0.492,0.02 0.374,0.02 0.442,0.11 0.49,0.02 0.56,0.1 h 0.68 l 0.603,0.1 0.258,0.12 0.144,-0.01 0.133,-0.03 0.194,-0.03 0.41,-0.03 0.298,0.1 h 0.27 l 0.523,-0.01 0.376,-0.01 h 0.092 l -0.023,-0.09 -0.345,0.01 -0.111,-0.16 0.184,-0.12 -0.183,0.01 -0.062,-0.05 v 0 l -0.223,-0.47 v 0"
           inkscape:connector-curvature="0"
           style="fill:none;stroke:#000000;stroke-width:4;stroke-linecap:butt;stroke-linejoin:round" />
      </g>
      <g
         id="g180">
        <path
           id="path178"
           d="m 245.288,1091.05 -0.239,-0.48 -0.421,-0.89 0.035,-0.75 0.051,-0.75 -0.186,-0.61 -0.202,-0.72 -0.204,-0.83 0.027,-1.04 -0.059,-0.98 -0.079,-0.72 0.03,-0.72 -0.067,-0.94 -0.09,-1.03 0.123,-1.03 0.142,-1.1 0.136,-1.22 0.23,-1.33 0.23,-1.16 0.422,-1.06 0.532,-1.11 0.214,-1.09 0.148,-1.02 0.123,-1.12 -0.093,-1.27 -0.106,-1.22 -0.203,-1.08 -0.179,-1.12 -0.251,-1.35 -0.685,-1.22 -0.57,-1.28 -0.539,-1.18 -0.277,-1.06 0.014,-0.9 -0.153,-0.96 -0.201,-0.94 0.105,-0.85 0.004,-0.72 0.073,-0.33 0.054,-0.23 0.029,-0.28 0.007,-0.17 -0.011,-0.07 0.175,-0.16 0.332,-0.14 0.027,-0.32 0.075,-0.19 -0.032,-0.32 -0.154,-0.44 -0.057,-0.35 0.074,-0.4 -0.231,-0.3 -0.436,-0.34 -0.275,-0.41 -0.24,-0.28 0.335,0.01 0.132,-0.01 -0.182,0.13 -0.129,0.11 0.02,-0.1 0.116,0.04 0.05,-0.14 -0.157,-0.39 -0.148,-0.56 0.104,-0.45 -0.108,-0.41 -0.216,-0.57 -0.259,-0.55 v 0"
           inkscape:connector-curvature="0"
           style="fill:none;stroke:#000000;stroke-width:4;stroke-linecap:butt;stroke-linejoin:round" />
      </g>
      <g
         id="g184">
        <path
           id="path182"
           d="m 260.346,986.89 -0.132,0.149 -0.085,0.063 0.086,0.288 0.144,-0.124 0.01,-0.092 -0.089,-0.247 -0.246,0.019 0.031,-0.012 0.039,0.007 -0.01,-0.135 -0.092,-0.197 -0.277,-0.289 -0.129,-0.365 -0.093,-0.414 -0.189,-0.402 -0.314,-0.284 0.013,-0.46 0.175,-0.676 0.081,-0.724 -0.057,-0.793 0.012,-0.902 0.117,-0.91 0.343,-0.754 0.024,-0.796 -0.136,-0.696 0.16,-0.763 0.092,-0.801 0.09,-0.698 0.193,-0.657 -0.011,-0.778 -0.028,-1.007 0.19,-0.896 -0.013,-0.927 -0.027,-0.905 -0.14,-0.828 -0.031,-0.874 0.1,-0.8 0.01,-0.588 0.006,-0.598 0.007,-0.75 -0.225,-0.637 -0.119,-0.675 -0.111,-0.709 -0.102,-0.734 -0.21,-0.533 -0.202,-0.478 -0.093,-0.389 -0.065,-0.471 0.265,-0.406 0.081,-0.428 -0.274,-0.406 -0.232,-0.551 -0.136,-0.609 0.114,-0.573 -0.285,-0.551 -0.117,-0.561 0.011,-0.558 0.033,-0.539 -0.07,-0.519 0.017,-0.529 -0.093,-0.44 0.007,-0.401 0.127,-0.208 0.016,0.017 0.003,0.088 0.181,-0.06 0.162,-0.067 -0.133,0.048 -0.059,0.026 0.121,-0.212 0.1,-0.322 0.005,-0.361 -0.008,-0.506 -0.017,-0.467 -0.016,-0.524 -0.129,-0.413 -0.121,-0.543 -0.122,-0.583 -0.003,-0.483 0.02,-0.313 -0.081,-0.27 0.014,-0.19 0.021,-0.093 0.023,-0.162 -0.194,-0.227 -0.011,-0.192 0.31,-0.136 0.173,-0.182 0.21,-0.151 0.024,-0.297 -0.017,-0.431 0.073,-0.449 -0.033,-0.539 -0.144,-0.603 -0.155,-0.626 -0.25,-0.694 -0.245,-0.685 -0.226,-0.663 -0.622,-0.606 -0.243,-0.558 0.058,-0.393 0.107,-0.226 0.108,-0.029 -0.118,0.08 0.04,0.048 0.337,-0.079 0.074,-0.197 0.093,-0.066 -0.013,-0.003 -0.023,-0.191 0.055,-0.212 0.104,-0.29 -0.021,-0.357 -0.028,-0.41 -0.141,-0.452 -0.142,-0.42 -0.344,-0.368 -0.133,-0.468 -0.217,-0.375 -0.588,-0.4 v 0"
           inkscape:connector-curvature="0"
           style="fill:none;stroke:#000000;stroke-width:4;stroke-linecap:butt;stroke-linejoin:round" />
      </g>
      <g
         id="g188">
        <path
           id="path186"
           d="m 214.021,939.469 -0.141,0.091 0.056,0.201 0.045,0.135 0.143,-0.079 0.021,-0.061 0.156,-0.044 -0.006,-0.2 -0.006,0.003 0.274,0.013 0.43,-0.078 0.543,-0.089 0.492,-0.111 0.696,-0.092 1.029,-0.195 1.208,-0.328 1.364,-0.108 1.342,-0.069 1.267,-0.166 1.096,-0.065 1.115,-0.058 1.306,-0.062 1.096,-0.075 0.887,0.141 1.024,0.039 1.416,0.123 1.468,0.126 1.338,0.005 1.063,0.096 1.089,-0.016 1.403,-0.138 1.53,-0.046 1.434,-0.026 1.444,-0.01 1.271,0.004 1.485,0.006 1.756,-0.1 1.657,-0.113 1.452,-0.106 1.275,-0.099 1.149,0.014 1.219,0.133 1.47,0.142 1.675,0.029 1.532,0.009 1.344,0.215 1.476,0.216 1.651,0.11 1.317,0.097 0.594,-0.022 0.644,-0.045 1.086,-0.054 1.215,0.066 1.111,-0.02 0.781,-0.011 1.075,-0.01 1.323,-0.007 1.304,0.113 1.226,0.015 0.809,0.126 0.67,0.013 0.936,-0.008 1.194,-0.126 1.258,-0.25 1.045,-0.142 0.956,-0.221 1.221,-0.211 1.154,-0.099 1.179,-0.178 1.449,-0.068 1.381,0.048 1.01,-0.045 0.56,0.164 0.47,0.262 0.714,0.151 0.656,0.239 0.367,0.233 0.296,0.076 0.237,0.051 0.383,-0.064 0.452,-0.182 0.3,-0.07 0.236,-0.039 0.418,-0.117 0.609,-0.226 0.661,-0.234 1.101,-0.203 1.791,-0.083 1.77,0.038 1.307,0.071 0.767,0.078 0.417,0.063 0.437,-0.066 0.328,-0.111 0.331,-0.016 0.571,-0.117 0.713,0.085 0.971,-0.102 0.945,-0.122 0.724,-0.005 0.425,0.015 0.05,0.025 0.147,0.019 0.351,0.01 0.176,0.007 0.09,-0.105 0.197,-0.113 0.289,-0.02 0.305,-0.112 h 0.284 l 0.111,-0.114 0.051,-0.086 0.137,0.016 0.195,-0.087 0.259,0.017 0.217,0.024 0.192,0.022 0.262,0.015 0.22,0.01 0.185,-0.107 0.066,-0.008 -0.049,-10e-4 -0.097,0.004 -0.268,-0.098 v 0"
           inkscape:connector-curvature="0"
           style="fill:none;stroke:#000000;stroke-width:4;stroke-linecap:butt;stroke-linejoin:round" />
      </g>
      <g
         id="g192">
        <path
           id="path190"
           d="m 209.473,938.071 -0.121,0.184 -0.178,0.022 0.077,-0.027 -0.062,-0.036 0.082,0.023 0.005,-0.108 0.102,-0.062 0.12,-0.123 0.023,-0.123 v -0.247 l -0.013,-0.342 -0.017,-0.428 0.092,-0.605 0.002,-0.751 -0.01,-0.845 -0.228,-0.924 -0.031,-1.015 0.22,-0.99 0.033,-1.037 -0.21,-1.013 -0.022,-1.097 -0.004,-1.106 0.119,-1.079 0.025,-1.151 0.006,-1.182 v -1.181 l -0.113,-1.165 -0.123,-1.252 -0.015,-1.285 0.006,-1.281 -0.203,-1.352 -0.224,-1.382 -0.218,-1.57 -0.104,-1.614 0.03,-1.316 -0.063,-1.072 -0.276,-1.204 -0.105,-1.133 0.028,-1.093 0.157,-0.984 0.167,-0.804 0.147,-0.763 0.242,-0.513 0.227,-0.377 0.198,-0.471 0.197,-0.481 0.073,-0.42 -0.061,-0.401 0.135,-0.521 0.072,-0.696 0.072,-0.723 0.076,-0.8 -0.129,-1.006 -0.15,-1.044 -0.149,-0.913 -0.24,-0.815 -0.234,-0.684 0.116,-0.551 0.058,-0.416 0.054,-0.295 0.153,-0.302 0.045,-0.271 0.019,-0.273 0.11,-0.212 -0.003,-0.049 -0.117,0.008 0.059,-0.208 -0.122,-0.351 -0.016,-0.231 0.194,-0.361 0.036,-0.373 -0.1,-0.303 -0.216,-0.468 -0.363,-0.639 -0.262,-0.654 0.001,-0.506 -0.061,-0.425 -0.065,-0.307 0.043,-0.195 -0.064,-0.073 0.036,-0.051 0.127,0.118 0.126,0.105 0.04,0.007 0.09,-0.069 0.013,-0.189 0.196,-0.119 0.116,-0.234 -0.178,-0.009 -0.025,-0.183 -0.02,-0.376 0.208,-0.321 -0.087,-0.303 v 0"
           inkscape:connector-curvature="0"
           style="fill:none;stroke:#000000;stroke-width:4;stroke-linecap:butt;stroke-linejoin:round" />
      </g>
      <g
         id="g196">
        <path
           id="path194"
           d="m 210.648,886.939 0.089,0.127 0.355,0.106 0.51,0.123 0.488,-0.018 0.225,-0.023 0.316,-0.022 0.463,-0.129 0.597,-0.135 0.603,-0.127 0.573,-0.002 0.639,-0.083 0.939,0.013 1.223,0.131 1.46,0.035 1.739,0.127 1.492,0.25 1.222,0.135 1.266,0.103 1.516,0.082 1.486,0.189 1.334,0.084 1.452,0.065 1.342,0.069 1.013,-0.034 1.075,-0.042 1.181,-0.147 1.433,-0.149 1.505,-0.245 1.519,-0.236 1.3,0.007 1.215,-0.057 1.192,0.048 1.219,-0.051 1.414,-0.073 1.398,-0.088 0.988,0.135 1.206,0.028 1.251,0.124 1.28,0.233 1.725,0.114 1.619,0.104 1.42,0.09 1.204,0.08 0.989,-0.029 0.918,-0.042 0.66,-0.149 0.51,-0.039 0.705,-0.124 1.044,-0.128 1.179,-0.119 1.001,0.01 0.908,0.033 0.988,-0.066 1.122,0.129 1.342,0.141 1.382,0.139 1.438,0.341 1.243,0.358 0.965,0.121 0.75,0.069 0.537,0.161 0.521,0.051 0.655,-0.172 0.854,-0.194 0.945,-0.293 0.958,-0.381 0.955,-0.139 0.939,0.025 0.73,0.069 0.467,-0.025 0.301,-0.043 0.297,0.043 0.624,0.03 1.051,-0.086 1.474,-0.119 1.644,0.094 1.24,0.016 0.622,0.021 0.215,0.016 0.251,0.005 0.439,-0.112 0.358,-0.253 0.534,-0.133 0.823,-0.225 0.94,-0.117 1.022,0.018 0.744,0.049 0.417,0.169 0.508,0.057 0.497,0.03 0.588,0.114 0.62,0.112 0.825,0.097 1.268,0.083 1.222,0.09 0.924,0.094 0.391,-0.017 0.325,-0.031 0.274,-0.033 0.216,-0.028 0.114,-0.018 0.032,0.095 -0.016,0.009 0.183,-0.095 0.776,0.064 0.728,0.007 0.483,0.01 0.639,0.006 0.751,0.003 1.2,-0.003 1.681,-0.006 1.692,-0.113 0.881,0.006 0.139,0.022 -0.245,0.023 -0.331,0.014 -0.39,0.005 -0.234,-0.061 -0.035,-0.046 -0.07,-0.028 0.043,-0.016 0.143,-0.006 0.028,0.004 0.073,0.007 -0.161,-0.009 v 0"
           inkscape:connector-curvature="0"
           style="fill:none;stroke:#000000;stroke-width:4;stroke-linecap:butt;stroke-linejoin:round" />
      </g>
      <g
         id="g200">
        <path
           id="path198"
           d="m 309.983,936.848 0.261,0.568 0.782,0.357 0.302,-0.28 0.103,-0.418 0.142,-0.429 0.151,-0.518 0.135,-0.552 0.141,-0.629 0.041,-0.718 0.04,-0.793 0.05,-0.787 -0.045,-0.938 -0.151,-0.962 -0.145,-1.136 -0.131,-1.257 v -1.549 l -0.19,-1.693 -0.204,-1.781 -0.098,-1.648 -0.076,-1.646 0.042,-1.62 -0.056,-1.694 -0.078,-1.606 0.024,-1.661 0.03,-1.68 0.023,-1.599 0.124,-1.651 0.348,-1.69 0.143,-1.808 -0.228,-1.731 -0.064,-1.516 -0.051,-1.529 -0.139,-1.657 -0.25,-1.533 -0.136,-1.287 -0.104,-1.21 -0.09,-0.957 -0.176,-0.994 -0.076,-1.065 -0.179,-1.042 -0.181,-1.032 -0.076,-1.06 -0.066,-0.993 -0.509,-0.757 -0.118,-0.555 0.039,-0.393 -0.042,-0.278 0.054,-0.208 -0.067,-0.053 0.033,0.055 0.028,0.177 0.101,0.206 0.002,0.114 v 0 0"
           inkscape:connector-curvature="0"
           style="fill:none;stroke:#000000;stroke-width:4;stroke-linecap:butt;stroke-linejoin:round" />
      </g>
      <g
         id="g204">
        <path
           id="path202"
           d="m 288.747,937.432 -0.267,0.271 -0.324,0.304 -0.15,0.128 0.06,0.116 0.077,0.205 0.211,0.088 0.088,-0.07 0.102,-0.068 0.127,-0.054 0.097,-0.034 0.063,-0.127 0.066,-0.122 0.27,-0.209 0.33,-0.229 0.205,-0.318 0.168,-0.589 0.186,-0.586 0.054,-0.734 0.147,-0.81 0.27,-1.016 0.08,-1.041 0.169,-0.975 0.173,-1.019 0.298,-0.825 0.298,-0.831 0.298,-0.839 0.408,-0.759 0.299,-0.648 0.268,-0.519 0.256,-0.416 0.249,-0.428 0.043,-0.284 0.119,-0.144 0.137,-0.058 0.155,0.02 0.16,-10e-4 0.167,0.145 0.286,0.242 0.312,0.342 0.712,0.427 0.808,0.666 0.677,0.988 0.831,0.971 0.704,0.943 0.435,0.89 0.464,0.9 0.367,0.907 0.374,0.79 0.165,0.651 0.371,0.493 0.124,0.226 -0.006,-0.036 -0.117,-0.174 0.001,-0.2 v 0 0"
           inkscape:connector-curvature="0"
           style="fill:none;stroke:#000000;stroke-width:4;stroke-linecap:butt;stroke-linejoin:round" />
      </g>
      <g
         id="g208">
        <path
           id="path206"
           d="m 256.252,887.239 -0.239,-0.631 -0.1,-0.455 0.154,0.618 0.235,0.168 -0.019,0.206 -0.034,0.176 v -0.057 l -0.079,-0.06 -0.154,-0.172 -0.023,-0.064 0.041,-0.08 -0.003,-0.131 0.082,-0.054 0.047,-0.182 -0.192,0.038 0.143,0.151 0.189,-0.161 -0.245,-0.144 0.166,-0.104 0.107,-0.294 -0.013,-0.38 0.085,-0.594 0.105,-0.888 -0.005,-1.003 0.089,-1.347 -0.009,-1.706 -0.133,-1.735 -0.144,-1.712 -0.343,-2.1 -0.362,-2.387 -0.35,-2.48 -0.537,-2.476 -0.309,-2.62 -0.045,-2.52 -0.225,-2.224 -0.344,-2.091 -0.147,-2.097 -0.136,-1.936 -0.138,-1.699 -0.034,-1.669 -0.145,-1.734 -0.063,-1.718 0.043,-1.451 0.152,-1.193 0.04,-0.976 -0.306,-0.972 0.074,-0.866 0.338,-0.674 0.029,-0.473 -0.116,-0.359 0.074,-0.216 0.107,0.07 -0.017,0.094 -0.023,0.049 -0.157,0.057 0.085,0.008 0.014,0.078 0.077,-0.023 -0.052,-0.04 0.055,-0.047 0.031,-0.188 0.023,-0.025 0.027,-0.007 -0.034,0.008 -0.119,0.015 -0.116,0.016 0.054,0.011 0.067,-0.003 0.104,0.065 0.23,-0.016 0.082,-0.008 -0.005,0.043 -0.06,-0.027 v 0 0 0"
           inkscape:connector-curvature="0"
           style="fill:none;stroke:#000000;stroke-width:4;stroke-linecap:butt;stroke-linejoin:round" />
      </g>
      <g
         id="g212">
        <path
           id="path210"
           d="m 254.47,841.941 -0.056,-0.227 -0.033,-0.207 -0.139,-0.189 -0.006,-0.37 0.133,-0.298 0.016,-0.39 0.003,-0.381 -0.002,-0.393 -0.001,-0.659 v -0.926 l -0.114,-0.982 -0.121,-1.018 -0.011,-1.182 -0.098,-1.396 0.005,-1.411 0.128,-1.443 -0.076,-1.692 0.007,-2.034 0.01,-2.472 0.011,-3.003 0.119,-3.362 0.008,-3.435 -0.012,-3.494 -0.021,-3.413 -0.022,-3.393 -0.013,-3.788 0.214,-4.001 -0.196,-4.361 -0.673,-4.485 -0.394,-4.765 -0.457,-5.045 -0.207,-5.167 -0.366,-5.285 -0.695,-5.335 -0.511,-5.022 -0.494,-4.078 -0.241,-3.183 -0.08,-2.63 -0.066,-2.179 0.037,-1.936 -0.093,-1.584 0.198,-1.104 0.307,-0.549 0.386,-0.19 0.153,0.17 0.152,0.305 -0.049,0.238 -0.149,0.102 -0.218,-0.017 -0.179,-0.098 -0.016,-0.194 -0.006,-0.398 0.147,-0.478 -0.132,-0.268 -0.011,-0.025 0.127,-0.053 0.014,0.051 0.028,0.102 0.119,0.106 -0.01,0.075 0.007,0.115 0.146,0.037 -0.081,0.073 -0.013,0.013 0.037,-0.012 0.004,-0.022 -0.017,-0.2 -0.011,-0.002 0.019,0.008 -0.032,0.015 0.071,-0.06 v 0 0 0"
           inkscape:connector-curvature="0"
           style="fill:none;stroke:#000000;stroke-width:4;stroke-linecap:butt;stroke-linejoin:round" />
      </g>
      <g
         id="g216">
        <path
           id="path214"
           d="m 246.454,739.887 -0.003,0.004 -0.234,0.107 -0.277,0.133 -0.181,-0.005 -0.248,-0.015 -0.007,-0.018 0.07,-0.086 0.066,-0.068 0.059,-0.243 0.045,-0.511 0.027,-0.78 0.009,-1.033 0.106,-1.228 0.332,-1.204 0.231,-1.222 0.306,-1.438 0.419,-1.579 0.303,-1.851 0.386,-2.046 0.275,-1.97 0.351,-1.848 0.244,-1.68 0.122,-1.525 0.226,-1.09 0.356,-0.591 0.152,-0.326 0.351,-0.044 0.388,0.092 0.191,0.308 0.113,0.309 0.414,0.409 0.722,0.781 0.99,1.313 1.221,1.757 1.108,2.086 0.936,2.039 0.95,1.781 0.877,1.826 0.877,1.708 0.971,1.525 0.763,1.281 0.609,1.222 0.612,1.043 0.523,0.964 0.623,1.076 0.581,1.197 0.386,1.267 0.376,1.272 0.194,1.015 0.194,0.632 -0.011,0.347 -0.323,0.021 -0.217,-0.192 0.018,-0.256 -0.224,-0.297 -0.393,-0.021 -0.427,0.017 -0.58,-0.135 -0.68,-0.087 -0.887,-0.17 -0.914,-0.285 -1.088,-0.285 -1.199,-0.173 -1.197,-0.055 -0.946,-0.045 -0.455,0.066 -0.283,0.064 -0.491,0.055 -0.457,0.153 -0.345,0.138 -0.147,0.118 -0.324,-0.012 -0.343,-0.033 -0.271,0.073 -0.131,-0.135 -0.141,-0.153 0.051,0.097 0.186,-0.013 0.053,-0.194 0.038,0.201 0.173,0.019 0.035,0.014 -0.023,-0.092 0.086,-0.256 v 0"
           inkscape:connector-curvature="0"
           style="fill:none;stroke:#000000;stroke-width:4;stroke-linecap:butt;stroke-linejoin:round" />
      </g>
      <g
         id="g220">
        <path
           id="path218"
           d="m 245.759,685.248 -0.247,0.134 -0.137,0.132 0.05,-0.025 0.011,-0.025 0.129,-0.021 0.279,-0.017 0.046,-0.009 0.071,-0.004 0.26,-0.002 0.535,-0.002 0.775,-10e-4 0.806,0.003 0.752,0.007 0.873,0.005 1.088,0.002 1.216,0.002 1.288,10e-4 1.545,-0.108 1.501,-0.009 1.316,0.225 1.586,0.234 1.513,0.141 1.249,0.231 1.034,0.105 1.003,0.184 0.853,0.19 v 0"
           inkscape:connector-curvature="0"
           style="fill:none;stroke:#000000;stroke-width:4;stroke-linecap:butt;stroke-linejoin:round" />
      </g>
      <g
         id="g224">
        <path
           id="path222"
           d="m 243.029,682.527 -0.167,0.24 -0.216,0.078 -0.032,-0.013 -0.072,-0.038 -0.005,-0.04 0.059,-0.032 0.22,-0.022 0.019,-0.008 -0.052,-0.168 -0.096,-0.164 -0.203,-0.375 -0.48,-0.697 -0.543,-0.759 -0.489,-0.793 -0.449,-0.641 -0.488,-0.651 -0.373,-0.646 -0.337,-0.621 -0.333,-0.392 -0.094,-0.35 0.048,-0.529 0.027,-0.431 10e-4,-0.392 -0.036,-0.397 0.036,-0.343 0.023,-0.317 0.215,-0.312 0.63,-0.215 0.516,-0.471 0.446,-0.391 0.295,-0.285 0.428,-0.24 0.745,-0.334 0.754,-0.286 0.595,-0.042 0.408,-0.123 0.463,-0.032 0.321,-0.047 0.358,0.05 0.67,0.141 0.524,0.276 0.537,0.239 0.521,0.42 0.76,0.539 0.624,0.463 0.536,0.492 0.715,0.456 0.665,0.577 0.567,0.366 0.379,0.405 0.371,0.304 0.289,0.204 0.052,0.291 0.05,0.41 -0.02,0.465 0.008,0.481 -0.168,0.479 -0.157,0.669 0.189,0.721 -0.188,0.616 -0.206,0.463 -0.197,0.291 v 0 0"
           inkscape:connector-curvature="0"
           style="fill:none;stroke:#000000;stroke-width:4;stroke-linecap:butt;stroke-linejoin:round" />
      </g>
      <g
         id="g228">
        <path
           id="path226"
           d="m 244.372,662.213 0.044,0.084 0.016,0.02 0.146,0.003 0.038,-0.005 0.227,-0.006 0.417,-0.006 0.376,-0.251 0.321,-0.24 0.482,-0.218 0.809,-0.208 0.969,-0.193 1.058,-0.183 1.216,0.036 1.231,0.067 1.264,0.071 1.138,0.06 1.067,0.04 1.02,0.127 0.923,0.123 0.789,0.217 0.867,0.207 0.825,0.418 0.951,0.314 0.698,0.31 0.25,0.189 0.135,0.018 0.171,-0.002 -0.105,-0.087 -0.225,-0.081 -0.23,-0.123 -0.357,-0.064 -0.626,-0.212 -0.888,-0.245 -1.028,-0.33 -1.251,-0.419 -1.193,-0.437 -1.084,-0.296 -0.883,-0.259 -0.638,-0.028 -0.631,0.009 -0.577,-0.107 -0.512,-0.032 -0.025,0.063 0.34,0.051 0.241,0.039 0.126,0.023 0.169,0.007 0.225,-0.122 0.136,-0.342 0.305,-0.38 0.503,-0.475 0.606,-0.548 0.512,-0.551 0.355,-0.616 0.317,-0.584 0.402,-0.757 0.003,-0.815 -0.258,-0.758 -0.267,-0.723 -0.232,-0.814 -0.181,-0.824 -0.588,-0.502 -1.056,-0.403 -0.841,-0.59 -0.64,-0.614 -0.908,-0.554 -0.876,-0.528 -0.922,-0.622 -0.915,-0.539 -0.999,-0.42 -0.895,-0.416 -0.668,-0.429 -0.32,-0.226 -0.144,0.031 -0.042,0.152 0.314,0.129 0.386,0.094 0.117,0.057 0.027,0.019 0.045,0.046 0.185,0.103 0.268,0.086 0.294,0.298 0.528,0.331 0.517,0.32 0.603,0.298 0.715,0.17 0.904,0.032 0.832,0.14 1.053,0.144 1.279,0.158 1.517,0.174 1.528,0.072 1.358,0.185 1.439,0.297 1.845,0.305 1.873,0.212 1.699,0.189 1.302,0.182 0.609,0.191 -0.318,0.589 v 0"
           inkscape:connector-curvature="0"
           style="fill:none;stroke:#000000;stroke-width:4;stroke-linecap:butt;stroke-linejoin:round" />
      </g>
      <g
         id="g232">
        <path
           id="path230"
           d="m 259.828,638.494 -0.14,0.266 -0.009,0.563 -0.147,0.289 -0.065,0.001 -0.065,-0.092 -0.06,-0.165 -0.181,-0.192 -0.305,-0.266 -0.557,-0.369 -1.006,-0.347 -1.059,-0.55 -1.3,-0.735 -1.201,-0.763 -1.286,-0.807 -1.448,-0.875 -1.577,-0.773 -1.438,-0.629 -1.138,-0.583 -0.939,-0.555 -0.813,-0.453 -0.427,-0.265 -0.046,-0.13 -0.122,-0.002 -0.154,-0.05 0.401,0.111 0.35,0.092 0.156,0.059 0.206,0.022 0.157,-0.008 0.26,-0.028 0.755,-0.241 1.297,-0.179 1.681,-0.27 1.963,-0.141 1.944,0.007 1.82,0.045 1.592,0.061 1.567,0.162 1.645,0.05 1.572,0.023 1.335,0.114 1.17,0.107 v 0 l 1.309,0.089 -2.761,2.78 v 0"
           inkscape:connector-curvature="0"
           style="fill:none;stroke:#000000;stroke-width:4;stroke-linecap:butt;stroke-linejoin:round" />
      </g>
      <g
         id="g236">
        <path
           id="path234"
           d="m 252.843,636.5 -0.292,-0.887 -0.103,-1.038 -0.263,-0.107 -0.045,0.306 0.123,0.04 0.218,-0.234 0.184,-0.449 0.153,-0.707 0.01,-0.921 0.088,-1.105 0.082,-1.298 -0.032,-1.392 -0.043,-1.525 v 0 0"
           inkscape:connector-curvature="0"
           style="fill:none;stroke:#000000;stroke-width:4;stroke-linecap:butt;stroke-linejoin:round" />
      </g>
      <g
         id="g240">
        <path
           id="path238"
           d="m 245.558,613.646 0.043,0.448 0.02,1.083 0.008,0.818 0.002,0.423 0.116,0.59 0.494,0.425 0.388,0.299 0.097,0.269 0.255,0.345 0.48,0.388 0.544,0.341 0.411,0.351 0.559,0.22 0.682,0.113 0.8,0.117 0.627,-0.067 0.513,-0.182 0.667,-0.381 0.649,-0.627 0.09,-0.762 0.312,-0.729 0.473,-0.932 0.333,-0.968 0.313,-0.864 0.633,-0.796 0.403,-0.719 0.25,-0.44 0.506,-0.241 0.495,-0.185 0.372,-0.208 0.434,-0.131 0.565,-0.184 0.407,-0.025 0.212,0.18 0.173,0.169 0.293,0.146 0.132,0.525 0.546,0.763 0.74,0.799 0.448,0.895 0.274,0.923 0.221,1.06 0.008,1 -0.121,0.923 -0.227,0.767 -0.424,0.624 -0.31,0.313 -0.339,0.024 v 0 0 0"
           inkscape:connector-curvature="0"
           style="fill:none;stroke:#000000;stroke-width:4;stroke-linecap:butt;stroke-linejoin:round" />
      </g>
      <g
         id="g244">
        <path
           id="path242"
           d="m 252.47,596.002 -0.365,-1.072 -0.067,-0.736 0.42,0.234 0.08,0.223 -0.004,0.178 -0.133,0.129 -0.114,0.079 0.106,-0.229 0.048,-0.513 0.012,-0.633 0.103,-0.767 -0.219,-0.849 -0.355,-0.879 -0.49,-0.848 -0.376,-0.796 -0.333,-0.62 -0.397,-0.448 -0.58,-0.405 -0.517,-0.351 -0.282,-0.158 -0.185,-0.005 -0.163,-0.026 -0.109,0.008 -0.102,0.214 -0.009,0.195 -0.006,0.365 -0.06,0.274 -0.067,0.391 -0.091,0.394 -0.312,0.661 -0.029,0.751 0.013,0.712 0.025,0.659 0.132,0.827 0.029,0.866 0.232,0.853 0.347,0.904 0.455,1.021 0.66,1.229 0.786,1.176 0.859,1.121 0.951,0.774 1.008,0.48 0.752,0.467 0.588,0.281 0.419,0.067 0.379,-0.028 0.593,0.115 0.722,-0.006 0.84,-0.289 0.866,-0.391 0.477,-0.624 0.746,-0.826 1.238,-1.278 0.835,-1.916 0.406,-2.455 0.122,-2.695 -0.028,-2.546 -0.139,-2.599 -0.315,-2.643 v 0 0"
           inkscape:connector-curvature="0"
           style="fill:none;stroke:#000000;stroke-width:4;stroke-linecap:butt;stroke-linejoin:round" />
      </g>
      <g
         id="g248">
        <path
           id="path246"
           d="m 50.5691,834.346 0.3695,-0.133 -0.0626,0.097 -0.1445,0.285 0.0826,0.125 -0.0104,0.238 0.3513,0.243 0.2521,0.231 0.198,0.295 0.3087,0.289 0.1167,0.086 -0.0585,0.006 -0.063,-0.091 -0.1122,-0.09 -0.1399,-0.071 -0.0111,-0.048 -0.3068,-0.017 -0.0349,-0.002 0.2643,0.008 -0.0012,0.028 0.0172,-0.037 -0.0355,-0.015 0.013,-0.003 0.1642,-0.07 0.0798,-0.159 0.3443,-0.007 0.5875,-0.083 0.5771,0.002 0.724,-0.072 1.1519,-0.108 1.337,-0.003 1.6797,0.012 1.8921,-0.085 1.5968,0.014 1.182,0.026 1.0083,0.024 0.9051,-0.092 1.1766,-0.113 1.4937,-0.018 1.2331,0.115 1.3731,0.013 1.6419,0.108 1.392,0.128 1.2201,0.008 1.0735,0.098 1.2734,-0.012 1.4367,0.08 1.3132,-0.013 1.23,-0.129 1.2106,-0.03 1.0476,-0.013 1.1675,-0.004 1.4314,0.001 1.6357,0.003 1.7482,0.007 1.744,0.118 1.6116,0.13 1.5312,0.018 h 1.402 l 1.173,-0.01 0.721,-0.01 0.7918,-0.016 1.1066,-0.125 1.3688,0.078 h 1.345 l 1.59,-0.002 1.777,-0.108 1.717,-0.227 1.609,-0.01 1.548,0.018 1.517,-0.077 1.395,0.131 1.266,-0.071 1.133,-0.095 1.023,0.109 0.94,0.017 1.039,-0.207 1.409,-0.136 1.282,-0.131 1.18,-0.002 1.237,-0.19 1.017,-0.104 1.006,-0.086 1.396,-0.083 1.664,0.02 1.7,-0.071 1.448,-0.193 1.24,0.015 0.983,-0.075 0.819,-0.083 1.08,0.116 1.243,0.029 1.196,-0.092 0.964,0.002 1.003,0.002 0.954,0.003 h 0.953 l 1.049,-10e-4 1.199,-0.004 1.147,-0.003 h 1.1 l 0.794,0.004 0.598,0.005 h 0.746 l 1.146,0.098 1.385,0.113 1.326,-0.105 1.338,-0.016 1.335,-0.011 1.312,-0.114 1.078,-0.009 0.8,0.008 0.813,-0.094 0.777,0.108 0.802,0.127 0.922,-0.088 1.467,-0.121 1.67,-0.026 1.47,0.108 1.118,0.128 1.002,0.129 1.082,0.225 1.233,0.12 1.085,-0.008 0.82,0.078 0.561,0.081 0.809,0.07 0.96,0.079 0.844,-0.024 0.571,0.082 0.604,0.189 0.684,0.002 0.81,-0.02 1.138,-0.03 1.342,0.08 1.258,0.108 1.253,0.11 1.233,0.114 1.023,0.004 0.72,-0.01 0.722,0.084 0.972,0.092 1.369,0.093 1.304,0.103 1.13,0.211 0.766,0.222 0.285,0.227 0.269,-0.02 0.625,0.035 1.112,0.155 1.167,0.194 1.113,0.195 0.891,-0.13 0.792,0.051 0.677,-0.028 0.454,-0.024 0.567,-0.021 0.577,-0.122 0.497,-0.126 0.275,-0.002 0.145,-0.092 0.42,-0.087 0.487,0.007 1.057,0.015 1.42,0.019 1.317,-0.092 1.227,0.121 1.357,0.134 1.186,0.252 0.965,0.248 0.781,0.12 0.841,0.083 1.086,0.06 1.192,0.058 1.113,-0.045 0.781,-0.046 0.295,0.081 0.087,-0.016 0.195,-0.018 0.237,-0.015 0.285,-0.011 0.51,-0.007 0.725,-0.003 0.778,0.112 0.849,0.123 0.844,0.126 0.625,0.014 0.597,0.097 0.885,0.094 1.087,0.097 0.724,0.11 0.265,-0.014 0.221,-0.127 0.205,-0.048 0.244,-0.253 0.46,-0.246 0.771,-0.139 0.863,-0.216 0.745,-0.199 0.683,-0.07 0.559,-0.049 0.409,-0.044 0.362,-0.048 0.278,0.045 0.36,0.041 0.598,0.027 0.612,0.014 0.399,0.006 0.115,10e-4 0.327,0.085 h 0.559 l 0.533,-0.009 0.194,-0.009 0.171,-0.01 0.579,-0.014 0.857,-0.123 0.795,-0.014 0.797,0.002 0.502,0.015 0.284,0.02 0.217,0.016 0.061,0.012 -0.164,0.008 0.081,-0.003 0.24,0.097 0.234,0.003 0.092,-0.12 0.062,0.074 0.211,0.009 0.287,0.002 0.428,-0.001 0.578,0.104 0.846,0.111 0.717,0.128 0.104,0.17 0.387,0.069 0.899,0.063 1.209,-0.026 1.106,-0.148 0.88,-0.036 0.212,0.121 -0.427,-0.121 -0.193,-0.005 -0.07,-10e-4 0.037,-0.098 -0.107,-0.009 -0.015,0.001 0.272,0.004 0.507,0.006 0.376,0.011 0.157,0.013 -0.024,0.012 0.12,0.005 0.381,-0.207 0.179,-0.025 v 0"
           inkscape:connector-curvature="0"
           style="fill:none;stroke:#000000;stroke-width:4;stroke-linecap:butt;stroke-linejoin:round" />
      </g>
      <g
         id="g252">
        <path
           id="path250"
           d="m 150.887,1249.48 -0.576,-0.75 -0.796,-0.69 0.456,0.15 -0.026,0.24 0.014,0.13 0.088,0.1 0.088,0.11 0.03,0.06 0.108,-0.09 0.003,0.1 0.028,-0.03 -0.042,-0.11 -0.048,-0.06 0.219,-0.28 0.404,-0.23 0.263,-0.37 -0.128,-0.35 0.052,-0.29 0.064,-0.39 0.066,-0.48 -0.031,-0.58 0.075,-0.7 0.092,-0.82 -0.116,-0.9 -0.027,-0.9 0.093,-0.87 0.008,-1.01 -0.107,-1.14 -0.225,-1.35 -0.131,-1.38 -0.441,-1.34 -0.346,-1.29 -0.318,-1.35 0.038,-1.46 -0.238,-1.38 -0.486,-1.21 -0.178,-1.39 -0.151,-1.44 -0.253,-1.36 -0.165,-1.02 -0.048,-0.74 -0.143,-0.59 -0.158,-0.61 -0.072,-0.5 -0.175,-0.4 0.138,-0.41 -0.044,-0.49 -0.191,-0.42 0.004,-0.54 0.24,-0.58 -0.073,-0.51 -0.112,-0.35 0.085,-0.42 -0.106,-0.46 -0.126,-0.36 -0.118,-0.42 -0.123,-0.37 -0.107,-0.34 -0.222,-0.13 0.016,-0.19 -0.074,-0.14 -0.067,-0.12 0.133,-0.13 -0.078,-0.09 -0.079,0.06 -0.09,-0.05 -0.112,-0.22 0.015,-0.2 0.192,-0.09 0.063,-0.2 0.113,-0.19 0.02,-0.23 -0.006,-0.23 -0.019,-0.18 0.084,-0.28 -0.008,-0.2 -0.016,-0.16 0.085,-0.15 0.005,-0.27 -0.007,-0.19 0.196,-0.15 0.021,-0.19 -0.104,-0.25 -0.137,-0.3 -0.027,-0.33 0.206,-0.26 -0.08,-0.29 -0.233,-0.05 -0.017,-0.14 -0.114,-0.17 0.012,-0.04 -0.007,0.06 0.043,-0.02 -0.018,0.03 0.132,0.02 0.155,-0.09 0.217,-0.1 v 0"
           inkscape:connector-curvature="0"
           style="fill:none;stroke:#000000;stroke-width:4;stroke-linecap:butt;stroke-linejoin:round" />
      </g>
      <g
         id="g256">
        <path
           id="path254"
           d="m 53.4945,1251.39 -0.6533,-3.9 -0.8284,-3.92 -0.9484,0.94 0.4704,0.78 0.2743,0.62 0.0232,0.77 -0.1201,0.42 0.0736,0.29 -0.0392,0.09 -0.0807,-0.09 -0.0031,-0.02 0.1954,-0.17 0.0943,-0.15 0.1238,-0.28 -0.2398,-0.03 -0.0373,-0.17 -0.0274,-0.16 0.0899,-0.05 0.2723,-0.11 0.2807,-0.2 0.3387,-0.07 0.6259,-0.06 1.0788,0.02 1.748,-0.04 1.9822,-0.09 1.9951,0.01 2.0422,0.02 2.5459,-0.09 h 3.0141 l 3.0438,0.01 2.2219,-0.09 1.3639,-0.2 1.2108,-0.11 1.6019,-0.11 2.1117,-0.11 2.2049,-0.1 2.0221,-0.1 1.9463,0.02 2.15,0.03 2.3351,0.03 1.9904,0.04 1.8145,0.02 1.403,-0.1 h 1.5866 l 1.7991,-0.01 h 1.5394 l 1.498,-0.22 1.256,-0.13 1.317,-0.22 1.078,-0.23 1.132,-0.1 1.372,-0.18 1.411,-0.2 1.391,-0.07 1.467,-0.06 1.502,-0.05 1.586,0.04 1.12,0.17 0.932,0.16 0.904,0.14 0.877,0.23 0.786,0.22 0.975,0.19 1.091,0.07 0.739,0.29 0.539,-0.04 0.388,-0.07 0.599,0.02 0.913,-0.15 0.82,-0.17 0.749,-0.13 0.815,-0.12 0.762,-0.21 0.344,-0.1 0.471,-0.15 0.862,-0.08 0.745,-0.07 0.337,-0.07 0.292,0.05 0.271,0.05 0.473,0.03 0.549,0.13 0.596,0.13 0.49,0.01 0.346,0.1 0.121,0.1 0.072,-0.02 0.063,0.06 0.045,-0.02 0.116,-0.03 0.16,0.08 h 0.132 l 0.343,0.08 0.368,0.12 0.342,0.23 0.688,0.11 0.893,0.2 0.821,0.22 0.814,0.09 0.764,0.08 0.558,-0.04 0.154,0.07 0.05,-0.03 -0.02,-0.15 -0.077,-0.04 -0.14,-0.02 h -0.135 -0.076 l -0.004,0.08 0.244,0.04 0.174,0.02 0.464,-0.09 0.555,0.09 0.312,-0.12 0.166,-0.1 0.231,-0.11 0.456,-0.42 0.305,-0.5 v 0"
           inkscape:connector-curvature="0"
           style="fill:none;stroke:#000000;stroke-width:4;stroke-linecap:butt;stroke-linejoin:round" />
      </g>
      <g
         id="g260">
        <path
           id="path258"
           d="m 51.3363,1247.38 -0.295,0.83 0.0086,0.61 -0.0934,0.52 -0.0699,0.31 0.0565,-0.36 0.0526,-0.34 0.0319,-0.39 0.0187,-0.43 -0.002,-0.56 -0.0103,-0.59 0.0947,-0.64 0.1076,-0.62 -0.0062,-0.75 0.0882,-0.77 -0.0133,-0.86 0.0865,-0.84 0.0992,-0.82 0.2048,-1.55 0.1237,-1.53 0.0975,-1.42 0.079,-1.38 0.079,-1.67 -0.0263,-1.93 -0.0356,-2.15 -0.0348,-2.24 0.0826,-2.49 0.1101,-2.8 0.114,-2.83 0.106,-2.46 -0.0114,-2.35 -0.2417,-2.23 0.171,-2.03 0.0025,-1.76 0.1045,-1.82 0.1242,-2.01 0.1209,-1.94 0.1136,-1.82 0.1036,-1.98 0.099,-2.11 -0.2384,-2.04 -0.0552,-1.89 0.0759,-1.94 -0.2223,-1.98 -0.6683,-2.07 -0.2752,-2.21 0.2298,-2.15 0.0935,-1.97 0.0794,-2.01 -0.0569,-1.76 0.0266,-1.67 -0.195,-1.67 0.0985,-1.53 0.3505,-1.3 0.0424,-1.45 -0.0052,-1.47 -0.0218,-1.7 0.1879,-1.68 -0.0091,-1.48 -0.0328,-1.29 0.0734,-1.26 0.0944,-1.38 -0.0047,-1.52 0.095,-1.67 0.328,-1.61 0.0148,-1.56 -0.0211,-1.81 0.0743,-2 -0.1365,-2.03 -0.0414,-2.05 0.0834,-2.05 -1e-4,-2.21 -0.0053,-2.13 -0.117,-1.88 -0.0134,-1.78 -0.1026,-1.96 9e-4,-1.96 0.2393,-1.85 0.041,-1.81 0.0104,-1.73 -0.0041,-1.63 -0.1189,-1.62 0.085,-1.55 0.0017,-1.45 -0.0048,-1.44 -0.1135,-1.37 0.0955,-1.38 0.1252,-1.49 0.2388,-1.65 0.3561,-1.69 0.4533,-2.06 0.3441,-2.18 0.0796,-1.96 0.1324,-1.99 0.131,-2.1 0.2491,-2.14 0.1598,-1.8 0.0407,-1.76 0.0413,-1.87 0.1634,-1.87 0.0771,-1.93 -0.1372,-1.96 -0.1492,-2.17 0.0717,-2.15 0.1117,-2.02 -0.102,-1.65 -0.1144,-1.55 0.1001,-1.47 0.1343,-1.4 0.1369,-1.2 0.0167,-1.08 0.2117,-1.11 0.3418,-1.17 0.2388,-1.05 0.198,-1.19 0.2878,-1.57 0.1905,-1.82 -0.054,-1.72 0.3423,-1.81 0.1815,-1.93 0.0573,-1.83 0.1501,-1.81 0.2735,-1.9 0.1929,-2.1 -0.0341,-2.05 0.0489,-1.8 -0.0519,-1.69 -0.0475,-1.69 -0.0331,-1.72 -0.1337,-1.36 -0.0184,-0.96 -0.0991,-0.89 0.1191,-0.97 0.156,-1.06 0.1534,-1.13 0.0311,-1.27 0.2187,-1.52 0.3431,-1.69 0.2296,-1.9 -0.2294,-2.37 0.0281,-2.68 0.3788,-2.67 0.094,-2.53 0.0627,-2.58 -0.0484,-2.57 0.0527,-2.43 -0.0428,-2.05 -0.036,-1.93 0.0855,-1.66 -6e-4,-1.44 0.1082,-1.23 0.1245,-1.08 0.0142,-1.02 -0.1078,-0.98 -0.016,-1.063 0.213,-1.133 0.2446,-1.381 0.0259,-1.758 -0.0122,-1.961 0.0774,-1.864 -0.0311,-1.744 -0.037,-1.755 0.0768,-1.935 0.1003,-2.062 -0.0028,-2.148 -0.1205,-2.225 -0.0251,-2.224 0.098,-2.187 0.01,-2.146 -5e-4,-2.03 -0.0041,-1.799 -0.0054,-1.541 -0.0043,-1.306 -0.113,-1.006 -0.116,-0.881 -0.0015,-1.029 -0.0914,-1.077 -0.0941,-1.123 0.0191,-1.45 -0.1867,-1.686 -0.1027,-1.733 0.0117,-1.586 0.0235,-1.4 -0.183,-1.689 -0.1101,-1.809 -0.1069,-1.805 0.0112,-1.826 0.0282,-1.738 0.0281,-1.872 0.0236,-2.006 0.0127,-1.95 -0.1041,-1.881 -0.0126,-1.761 -0.0068,-1.447 -0.004,-1.152 -0.1055,-1.105 -0.2261,-0.984 -0.1201,-0.999 0.0089,-1.054 0.0363,-1.125 -0.1736,-1.353 -0.2027,-1.55 -0.1015,-1.789 -0.0902,-1.816 -0.0826,-1.858 -0.0855,-1.822 0.022,-1.773 0.1439,-1.808 -0.0738,-1.617 0.0044,-1.434 0.2232,-1.19 0.1335,-1.25 -0.0993,-1.408 -0.0253,-1.51 -0.0252,-1.544 0.2002,-1.455 0.0086,-1.429 -0.3383,-1.418 -0.3846,-1.248 -0.26,-1.286 -0.1156,-1.311 -0.1773,-1.427 -0.1785,-1.369 -0.0598,-1.348 -0.043,-1.333 -0.1556,-1.335 0.0436,-1.435 0.2797,-1.278 -0.0428,-1.304 -0.2079,-1.219 -0.0254,-1.131 -0.1175,-1.184 -0.1249,-1.04 -0.0088,-0.813 0.0104,-0.656 -0.0906,-0.564 -0.2032,-0.584 -0.4314,-0.635 -0.4589,-0.699 -0.1133,-0.839 -0.157,-0.862 -0.145,-0.955 -0.1514,-0.986 -0.2552,-1.257 -0.0622,-1.423 -0.0469,-1.425 -0.0468,-1.627 -0.0652,-1.676 -0.0863,-1.543 0.0143,-1.24 -0.2007,-1.034 -0.1189,-0.714 v -0.363 l -0.3119,-0.009 -0.0035,0.163 0.2067,0.316 0.0714,0.235 0.0614,0.134 0.018,0.085 -0.0393,-0.124 0.1254,-0.123 0.0517,-0.113 -0.2311,-0.271 -0.0418,-0.381 -0.1389,-0.69 -0.1211,-0.815 -0.21,-0.876 -0.1205,-0.874 -0.0953,-0.794 0.2444,-0.818 0.0691,-0.637 -0.0724,-0.535 -0.1058,-0.329 -0.0076,-0.114 0.2979,-0.041 0.0562,-0.048 0.0123,0.054 -0.0075,0.02 -0.0149,0.057 -0.144,0.03 -0.0885,-0.029 0.0319,-0.117 0.0832,-0.287 -0.0401,-0.706 -0.0933,-0.933 -0.1068,-1.206 -0.0013,-1.255 0.0148,-1.385 0.0106,-1.339 -0.1062,-1.255 -0.2284,-1.073 -0.0192,-0.904 0.2341,-0.649 0.0405,-0.316 -0.0972,0.043 -0.124,0.492 -7e-4,0.219 -0.1348,0.332 -0.0827,0.086 0.2647,0.09 0.2364,-0.059 0.0715,-0.092 0.3825,-0.103 0.1505,-0.086 -0.4212,-0.171 -0.2657,-0.015 -0.3507,0.011 -1.4292,1.565 v 0"
           inkscape:connector-curvature="0"
           style="fill:none;stroke:#000000;stroke-width:4;stroke-linecap:butt;stroke-linejoin:round" />
      </g>
      <g
         id="g264">
        <path
           id="path262"
           d="m 258.639,1493.3 -0.245,-0.83 -0.128,-0.98 0.42,0.18 -0.084,0.17 -0.065,0.14 0.296,0.1 0.307,0.19 0.362,0.04 0.52,-0.1 0.574,0.08 0.747,-0.02 0.731,-0.14 0.794,-0.03 0.975,-0.13 1.001,-0.13 1.246,-0.22 1.487,-0.12 1.805,-0.2 2.118,-0.2 1.959,-0.08 1.795,-0.17 1.687,-0.06 1.563,-0.05 1.597,-0.17 1.625,-0.08 1.366,0.03 0.989,-0.06 0.53,-0.08 0.186,-0.1 -0.014,0.01 -0.044,-0.09 -0.418,0.02 -0.293,0.02 -0.251,0.01 -0.218,-0.14 -0.23,-0.01 -0.694,-0.1 -1.051,-0.11 -1.115,-0.11 -1.207,-0.1 -1.591,0.02 -1.584,0.03 -1.665,0.14 -2,0.25 -1.903,0.26 -1.856,0.34 -1.884,0.33 -1.806,0.3 -1.548,0.17 -1.169,0.03 -0.987,0.01 -1.007,0.13 -1.193,0.16 -1.023,0.08 -1.067,0.07 -0.936,-0.03 -0.654,-0.03 -0.369,-0.15 -0.45,-0.02 -0.543,-0.11 -0.522,-0.12 -0.42,-0.1 -0.308,-0.09 -0.11,-0.09 -0.066,-0.17 -0.194,-0.29 -0.149,-0.52 0.045,-0.57 -0.062,-0.54 -0.089,-0.5 0.004,-0.67 0.011,-0.81 -0.105,-0.81 -0.009,-0.96 0.11,-1 -0.097,-1.06 0.096,-0.94 0.223,-0.99 0.239,-0.89 0.44,-0.94 0.572,-0.77 0.339,-0.65 0.479,-0.37 0.486,-0.18 0.555,0.04 0.641,0.21 0.571,0.5 0.83,0.65 1,0.85 0.949,0.84 0.66,0.86 0.363,0.87 0.62,0.91 0.689,0.92 0.606,1.02 0.287,0.91 0.034,0.74 0.019,0.59 -0.163,0.5 v 0"
           inkscape:connector-curvature="0"
           style="fill:none;stroke:#000000;stroke-width:4;stroke-linecap:butt;stroke-linejoin:round" />
      </g>
      <g
         id="g268">
        <path
           id="path266"
           d="m 230.206,1473.89 0.043,0.72 0.025,0.83 0.252,0.13 -0.084,-0.2 -0.047,-0.16 0.111,-0.13 0.216,-0.08 0.323,-0.27 0.542,-0.14 0.872,-0.11 1.021,-0.2 1.183,-0.18 1.37,-0.17 1.554,-0.17 1.627,-0.28 1.67,-0.06 1.711,-0.15 1.675,-0.16 1.527,-0.06 1.263,-0.17 0.986,-0.07 0.931,0.04 1.08,-0.17 h 1.277 l 1.083,0.14 0.822,-0.08 0.56,0.11 0.561,0.02 0.508,0.1 0.252,0.12 h 0.015 l -0.205,-0.02 -0.187,-0.03 -0.101,-0.14 -0.193,-0.02 -0.341,-0.13 -0.095,-0.41 -0.349,-0.44 -0.558,-0.4 -0.723,-0.63 -0.553,-0.67 -0.565,-0.6 -0.54,-0.55 -0.539,-0.54 -0.534,-0.42 -0.304,-0.4 -0.355,-0.47 -0.3,-0.42 -0.422,-0.2 -0.325,-0.18 -0.341,-0.09 -0.338,-0.1 -0.236,-0.24 -0.249,-0.17 -0.234,-0.17 -0.056,-0.09 0.087,-0.06 0.247,-0.04 0.192,0.01 0.077,-0.06 0.267,-0.08 0.778,-0.22 1.051,-0.35 1.03,-0.12 1.345,-0.21 1.198,-0.21 0.884,-0.07 0.988,-0.05 0.969,0.05 0.759,0.06 0.562,0.06 0.643,0.03 0.635,0.01 0.456,0.11 v 0 0"
           inkscape:connector-curvature="0"
           style="fill:none;stroke:#000000;stroke-width:4;stroke-linecap:butt;stroke-linejoin:round" />
      </g>
      <g
         id="g272">
        <path
           id="path270"
           d="m 258.348,1452.9 -0.374,-0.85 0.023,-1.07 -0.358,0.25 0.196,0.17 0.067,0.14 0.112,0.11 -0.03,0.08 -0.045,-0.14 -0.249,-0.24 -0.61,-0.3 -0.675,-0.42 -0.622,-0.38 -0.724,-0.43 -0.835,-0.42 -1.017,-0.5 -0.711,-0.63 -0.997,-0.57 -1.248,-0.45 -0.927,-0.36 -0.932,-0.38 -0.752,-0.42 -0.82,-0.41 -0.545,-0.35 -0.308,-0.11 0.18,-0.18 h 0.278 l 0.17,0.1 0.213,0.14 0.095,0.1 0.045,0.06 0.144,0.01 0.609,-0.11 0.615,-0.09 0.881,-0.25 0.933,-0.31 1.054,-0.05 1.029,-0.1 0.967,-0.2 0.907,-0.08 0.873,0.04 1.038,-0.05 1.098,0.04 1.107,0.04 v 0 l 0.42,1.41 v 0"
           inkscape:connector-curvature="0"
           style="fill:none;stroke:#000000;stroke-width:4;stroke-linecap:butt;stroke-linejoin:round" />
      </g>
      <g
         id="g276">
        <path
           id="path274"
           d="m 254.049,1446.3 -0.297,-0.2 -0.108,-0.66 -0.245,-0.58 -0.102,-0.6 -0.167,-0.64 -0.192,-0.8 -0.192,-0.8 -0.185,-0.75 0.155,-0.72 0.082,-0.79 v 0"
           inkscape:connector-curvature="0"
           style="fill:none;stroke:#000000;stroke-width:4;stroke-linecap:butt;stroke-linejoin:round" />
      </g>
      <g
         id="g280">
        <path
           id="path278"
           d="m 248.003,1427.29 0.019,0.31 0.143,1.18 0.295,0.84 0.091,0.57 0.081,0.51 0.087,0.31 0.185,0.23 0.204,0.15 0.096,0.06 0.165,0.05 0.177,0.08 0.302,0.02 0.308,0.05 0.093,0.1 0.329,0.08 0.401,-0.11 0.434,-0.13 0.411,-0.13 0.37,-0.33 0.457,-0.33 0.275,-0.46 0.325,-0.41 0.23,-0.4 0.317,-0.47 0.244,-0.48 0.352,-0.36 0.456,-0.41 0.604,-0.33 0.622,-0.33 0.604,-0.1 v 0 l 0.956,-0.09 0.951,0.09 0.595,0.2 0.197,0.18 0.272,0.12 0.285,0.22 0.189,0.42 0.086,0.51 0.097,0.62 0.133,0.62 -0.053,0.61 -0.05,0.48 -0.24,0.58 -0.362,0.75 -0.265,0.69 -1.289,1.37 v 0"
           inkscape:connector-curvature="0"
           style="fill:none;stroke:#000000;stroke-width:4;stroke-linecap:butt;stroke-linejoin:round" />
      </g>
      <g
         id="g284">
        <path
           id="path282"
           d="m 252.786,1415.32 -0.18,-1.24 0.157,-1.37 0.007,-0.27 -0.239,-0.07 -0.001,-0.23 -0.101,-0.62 -0.223,-0.56 -0.211,-0.63 -0.216,-0.57 -0.302,-0.63 -0.307,-0.65 -0.41,-0.66 -0.414,-0.54 -0.595,-0.5 -0.535,-0.31 -0.383,-0.18 -0.217,-0.04 -0.185,0.05 -0.095,0.14 -0.083,0.22 -0.2,0.29 -0.185,0.17 0.08,0.42 -0.019,0.51 -0.176,0.75 0.01,0.86 0.013,0.91 0.235,0.99 0.148,0.9 0.112,0.91 0.323,0.79 0.105,0.86 0.077,0.68 0.289,0.42 0.6,0.24 0.353,0.33 0.516,0.13 0.675,0.01 0.542,-0.03 0.462,-0.1 0.681,-0.07 0.794,-0.25 0.79,-0.36 0.742,-0.54 0.729,-0.75 0.612,-0.97 0.578,-1.26 0.476,-1.49 v 0 0"
           inkscape:connector-curvature="0"
           style="fill:none;stroke:#000000;stroke-width:4;stroke-linecap:butt;stroke-linejoin:round" />
      </g>
      <g
         id="g288">
        <path
           id="path286"
           d="m 258.471,1397.64 -0.123,-1.22 -0.19,-1.43 -0.159,-0.53 -0.107,-0.4 -0.205,-0.36 -0.217,-0.56 -0.314,-0.69 -0.198,-0.84 0.055,-0.97 -0.025,-0.97 -0.045,-0.86 0.161,-0.9 0.173,-0.82 v 0 0"
           inkscape:connector-curvature="0"
           style="fill:none;stroke:#000000;stroke-width:4;stroke-linecap:butt;stroke-linejoin:round" />
      </g>
      <g
         id="g292">
        <path
           id="path290"
           d="m 244.87,1379.59 -0.052,0.02 h 0.047 0.101 0.091 l 0.016,-0.01 0.091,-0.11 0.205,-0.23 0.353,-0.25 0.45,-0.12 0.423,-0.08 0.588,-0.16 0.734,-0.19 0.944,-0.2 0.858,-0.08 0.773,-0.05 0.901,-0.16 0.954,-0.08 0.749,-0.19 0.735,-0.19 v 0 0"
           inkscape:connector-curvature="0"
           style="fill:none;stroke:#000000;stroke-width:4;stroke-linecap:butt;stroke-linejoin:round" />
      </g>
      <g
         id="g296">
        <path
           id="path294"
           d="m 253.622,1364.63 -0.247,-0.58 0.032,-0.72 0.031,0.56 0.163,0.19 0.043,0.07 0.118,0.14 0.094,0.06 -0.011,-0.11 -0.001,-0.01 -0.036,-0.19 -0.033,-0.22 -0.133,-0.35 -0.026,-0.31 -0.221,-0.28 -0.433,-0.38 -0.675,-0.61 -0.814,-0.75 -1.002,-0.62 -1.247,-0.77 -1.192,-0.81 -0.933,-0.47 -0.746,-0.25 -0.696,-0.22 -0.815,-0.13 -0.657,-0.05 -0.513,0.03 -0.389,0.02 -0.032,0.08 0.057,0.15 0.206,-0.04 0.528,-0.09 0.254,-0.06 h 0.104 0.352 0.543 l 0.845,0.1 1.277,0.1 1.34,0.12 1.164,0.24 1.031,0.22 h 0.975 v 0 l 1.548,-0.18 0.478,-0.28 0.342,-0.27 0.157,-0.36 -0.04,-0.46 0.097,-0.42 -0.147,-0.44 -0.426,-0.56 -0.634,-0.69 -0.863,-0.62 -0.778,-0.76 -0.936,-0.66 -0.899,-0.63 -0.748,-0.52 -0.666,-0.48 -0.442,-0.38 -0.284,-0.37 -0.191,-0.17 0.017,-0.16 0.11,-0.18 v 0 0"
           inkscape:connector-curvature="0"
           style="fill:none;stroke:#000000;stroke-width:4;stroke-linecap:butt;stroke-linejoin:round" />
      </g>
      <g
         id="g300">
        <path
           id="path298"
           d="m 245.395,1337.19 0.031,0.33 -0.251,0.95 -0.125,0.8 0.036,0.58 -0.079,0.65 0.027,0.57 0.155,0.3 0.031,0.13 0.217,0.3 0.023,0.4 0.44,0.33 0.76,0.28 0.616,0.49 0.542,0.5 0.768,0.25 0.609,0.25 0.215,0.38 0.34,0.13 h 0.363 l 0.593,0.11 0.794,-0.18 0.908,-0.19 0.73,-0.17 0.824,-0.34 0.752,-0.46 0.638,-0.45 0.359,-0.62 0.106,-0.91 0.515,-1.24 0.082,-1.73 -0.477,-2.03 -0.403,-2.12 v 0 0 0"
           inkscape:connector-curvature="0"
           style="fill:none;stroke:#000000;stroke-width:4;stroke-linecap:butt;stroke-linejoin:round" />
      </g>
      <g
         id="g304">
        <path
           id="path302"
           d="m 256.745,1305.45 -0.009,-0.85 -0.113,-0.74 0.147,0.71 0.014,0.33 -0.028,0.21 0.072,-0.03 -0.065,-0.03 -0.008,-0.04 0.092,-0.05 -0.09,-0.04 -0.029,-0.18 -0.016,-0.28 0.155,-0.41 0.048,-0.65 -0.412,-0.81 -0.167,-0.85 0.198,-0.96 0.04,-0.82 0.133,-0.92 -0.081,-1.12 -0.11,-1.38 -0.015,-1.4 -0.002,-1.53 -0.102,-1.72 -0.223,-1.85 -0.228,-2.12 -0.439,-2.33 -0.448,-2.54 -0.434,-2.62 -0.62,-2.74 -0.734,-2.64 -0.847,-2.16 -0.578,-1.97 -0.314,-1.66 -0.272,-1.13 -0.134,-0.82 0.189,-0.58 0.192,-0.25 0.254,-0.05 0.309,0.16 0.258,0.17 v 0 l 0.571,0.3 0.315,0.1 v 0"
           inkscape:connector-curvature="0"
           style="fill:none;stroke:#000000;stroke-width:4;stroke-linecap:butt;stroke-linejoin:round" />
      </g>
      <g
         id="g308">
        <path
           id="path306"
           d="m 228.078,1269.24 0.143,0.74 0.014,0.84 0.204,-0.13 -0.056,-0.14 -0.015,-0.12 0.111,-0.1 0.079,-0.06 0.199,-0.15 0.313,-0.02 0.45,-0.1 0.733,-0.2 1.089,-0.1 1.536,0.03 1.49,-0.06 1.355,0.04 1.612,-0.06 1.683,0.03 1.724,-0.2 1.754,-0.11 1.839,-0.21 2.112,-0.12 2.084,-0.09 1.638,0.03 1.251,0.05 v 0 0 0"
           inkscape:connector-curvature="0"
           style="fill:none;stroke:#000000;stroke-width:4;stroke-linecap:butt;stroke-linejoin:round" />
      </g>
      <g
         id="g312">
        <path
           id="path310"
           d="m 231.861,1268.81 -0.182,-0.01 -0.104,-0.27 -0.055,0.06 0.014,-0.07 -0.06,-0.16 0.003,-0.26 -0.103,-0.38 0.008,-0.44 0.02,-0.44 0.015,-0.5 0.014,-0.6 0.224,-0.8 0.142,-0.85 0.005,-0.89 0.087,-1.16 -0.017,-1.33 -0.137,-1.51 -0.042,-1.59 -0.129,-1.95 -0.122,-2.48 -0.331,-2.87 -0.232,-3.15 0.011,-3.4 -0.164,-3.72 0.146,-3.72 0.061,-3.58 -0.178,-3.52 0.002,-3.38 0.011,-3.2 0.019,-3.42 0.015,-3.34 0.001,-2.85 -0.004,-2.48 -0.004,-2.17 -0.004,-1.91 -0.001,-1.71 0.223,-1.49 0.02,-0.96 -0.116,-0.49 -0.025,-0.11 -0.016,0.23 -0.044,0.37 0.062,0.25 0.021,0.16 0.006,0.05 h 0.056 l 0.031,0.02 0.01,0.14 v 0 0"
           inkscape:connector-curvature="0"
           style="fill:none;stroke:#000000;stroke-width:4;stroke-linecap:butt;stroke-linejoin:round" />
      </g>
      <g
         id="g316">
        <path
           id="path314"
           d="m 394.396,1497.01 -0.48,-0.39 -0.674,-0.7 0.306,0.1 -0.027,0.11 0.065,0.08 0.189,-0.02 0.298,0.03 0.166,0.14 0.13,0.02 0.255,-0.19 0.636,-0.15 0.741,-0.05 0.842,-0.11 1.213,-0.22 1.236,-0.13 1.04,-0.1 0.892,-0.07 1.041,-0.17 1.188,-0.09 1.306,-0.08 1.4,-0.07 1.128,0.03 0.908,0.04 0.841,0.15 v 0"
           inkscape:connector-curvature="0"
           style="fill:none;stroke:#000000;stroke-width:4;stroke-linecap:butt;stroke-linejoin:round" />
      </g>
      <g
         id="g320">
        <path
           id="path318"
           d="m 392.26,1495.85 -0.754,-0.13 -1.324,0.26 -0.326,0.71 0.125,0.16 0.142,-0.24 -0.131,-0.16 -0.109,-0.11 -0.113,-0.27 -0.351,-0.47 -0.455,-0.4 -0.446,-0.44 -0.426,-0.61 -0.202,-0.65 -0.242,-0.78 -0.364,-0.8 -0.281,-0.79 -0.042,-0.66 -0.009,-0.58 0.096,-0.64 0.087,-0.71 0.17,-0.61 0.366,-0.47 0.459,-0.65 0.361,-0.64 0.198,-0.54 0.138,-0.59 0.448,-0.41 0.692,-0.17 0.619,-0.17 0.484,-0.07 0.527,0.01 0.64,0.2 0.854,0.39 1.005,0.51 1.019,0.59 0.872,0.78 0.725,0.75 0.85,0.88 0.796,1 0.489,0.92 0.517,0.68 0.217,0.66 -0.217,0.45 -0.229,0.36 v 0 l -0.849,0.42 -1.25,0.89 v 0"
           inkscape:connector-curvature="0"
           style="fill:none;stroke:#000000;stroke-width:4;stroke-linecap:butt;stroke-linejoin:round" />
      </g>
      <g
         id="g324">
        <path
           id="path322"
           d="m 361.805,1474.78 -0.621,-1.52 -0.546,-1.53 0.476,0.35 0.039,0.31 -0.006,0.25 0.28,0.09 0.52,-0.01 0.737,-0.18 0.829,-0.33 0.978,-0.14 1.152,-0.23 1.522,-0.33 1.683,-0.35 1.548,-0.33 1.678,-0.18 1.888,-0.04 1.92,-0.03 1.754,-0.02 1.658,0.17 1.448,0.08 1.469,0.14 1.32,0.25 1.215,0.12 1.185,0.3 1.069,0.21 0.859,0.18 0.73,0.16 0.665,0.16 0.415,0.05 0.275,-0.07 0.379,0.03 -0.059,-0.05 -0.601,-0.13 -0.341,-0.17 -0.397,-0.16 -0.333,-0.21 -0.559,-0.28 -0.806,-0.52 -0.955,-0.44 -0.999,-0.62 -1.078,-0.72 -1.177,-0.71 -1.041,-0.8 -0.782,-0.79 -0.72,-0.52 -0.483,-0.48 -0.254,-0.46 -0.255,-0.35 -0.191,-0.35 0.078,-0.3 -0.048,-0.17 0.1,0.03 0.074,-0.06 0.035,-0.12 0.102,-0.06 0.079,0.02 0.054,0.02 0.155,-0.08 0.309,-0.12 0.453,-0.03 0.549,-0.12 0.536,-0.12 0.7,-0.01 1.109,0.11 1.301,0.25 1.571,0.25 1.575,0.36 1.235,0.14 0.737,0.1 0.765,-0.05 0.94,-0.07 0.745,-0.07 0.465,-0.05 v 0 0"
           inkscape:connector-curvature="0"
           style="fill:none;stroke:#000000;stroke-width:4;stroke-linecap:butt;stroke-linejoin:round" />
      </g>
      <g
         id="g328">
        <path
           id="path326"
           d="m 396.902,1453.8 0.349,0.67 0.395,0.52 -0.363,-0.11 -0.212,-0.22 -0.224,-0.1 -0.632,-0.27 -0.898,-0.3 -1.052,-0.47 -1.093,-0.57 -1.167,-0.55 -0.985,-0.73 -1.109,-0.7 -1.208,-0.66 -1,-0.78 -0.722,-0.75 -0.557,-0.61 -0.333,-0.58 -0.253,-0.36 0.033,-0.14 0.244,0.02 0.199,0.12 0.177,0.15 0.16,0.18 0.212,0.08 0.182,0.11 -0.097,0.01 0.161,-0.1 0.565,-0.01 0.835,-0.05 0.854,-0.05 1.003,-0.03 0.987,0.1 0.924,0.12 1.021,0.22 1.143,0.24 1.055,0.24 1.069,0.22 1.066,0.3 v 0 l 1.685,0.37 0.511,0.17 v 0"
           inkscape:connector-curvature="0"
           style="fill:none;stroke:#000000;stroke-width:4;stroke-linecap:butt;stroke-linejoin:round" />
      </g>
      <g
         id="g332">
        <path
           id="path330"
           d="m 392.213,1449.87 0.109,0.14 0.149,-0.12 -0.088,-0.01 -0.093,-0.02 -0.037,-0.18 0.107,-0.38 0.128,-0.64 -0.103,-0.81 -0.226,-0.86 -0.137,-0.87 -0.005,-0.9 -0.081,-0.94 -0.192,-1.13 -1.247,0.43 v 0"
           inkscape:connector-curvature="0"
           style="fill:none;stroke:#000000;stroke-width:4;stroke-linecap:butt;stroke-linejoin:round" />
      </g>
      <g
         id="g336">
        <path
           id="path334"
           d="m 385.697,1433.43 0.094,0.1 0.287,0.42 0.138,0.42 0.09,0.18 0.068,0.25 0.313,0.16 0.535,0.25 0.671,0.38 0.589,0.31 0.368,0.38 0.427,0.26 0.43,0.25 0.44,0.14 0.525,0.12 0.279,-0.07 0.077,-0.08 0.132,-0.18 0.307,-0.27 0.468,-0.49 0.415,-0.6 0.3,-0.47 0.243,-0.48 0.442,-0.55 0.4,-0.59 0.375,-0.55 0.369,-0.31 0.139,-0.28 0.205,-0.05 0.131,0.06 0.199,0.15 0.34,0.21 0.419,0.2 0.504,0.35 0.537,0.46 0.508,0.74 0.91,0.74 0.451,0.8 -0.103,0.69 0.025,0.59 -0.061,0.68 v 0 l -0.693,1.12 -0.616,0.23 v 0"
           inkscape:connector-curvature="0"
           style="fill:none;stroke:#000000;stroke-width:4;stroke-linecap:butt;stroke-linejoin:round" />
      </g>
      <g
         id="g340">
        <path
           id="path338"
           d="m 391.232,1423.62 h -0.087 l -0.047,-0.17 0.144,-0.44 0.541,-0.51 0.27,-0.62 0.088,-0.71 0.177,-0.82 -0.051,-0.84 -0.075,-0.86 -0.405,-0.84 -0.642,-0.81 -0.639,-0.81 -1.002,-0.86 -0.713,-0.83 -0.809,-0.66 -0.743,-0.64 -0.637,-0.47 -0.683,-0.11 -0.561,0.02 -0.275,0.21 0.052,0.62 -0.147,0.69 -0.167,0.8 -0.087,0.91 0.095,0.92 0.083,0.91 0.155,0.82 0.131,0.78 0.212,0.74 0.313,0.73 0.639,0.63 0.545,0.74 0.515,0.7 0.683,0.55 0.686,0.46 0.584,0.27 0.885,0.31 1.198,0.17 1.254,0.19 1.193,0.01 1.129,-0.19 0.988,-0.52 0.841,-0.63 0.579,-1.02 v 0 l 0.34,-2.97 v 0"
           inkscape:connector-curvature="0"
           style="fill:none;stroke:#000000;stroke-width:4;stroke-linecap:butt;stroke-linejoin:round" />
      </g>
      <g
         id="g344">
        <path
           id="path342"
           d="m 397.342,1404.51 0.635,0.23 -0.022,-0.06 -0.109,-0.06 0.021,0.05 -0.076,0.02 h -0.072 l -0.047,-0.15 -0.02,-0.22 -0.16,-0.17 0.031,-0.31 0.16,-0.6 -0.044,-0.79 -0.073,-1.14 -0.1,-1.44 -0.212,-1.82 -0.338,-1.93 v 0 0"
           inkscape:connector-curvature="0"
           style="fill:none;stroke:#000000;stroke-width:4;stroke-linecap:butt;stroke-linejoin:round" />
      </g>
      <g
         id="g348">
        <path
           id="path346"
           d="m 385.851,1381.94 0.023,0.32 0.012,0.29 0.005,0.12 -0.011,-0.07 -0.114,-0.31 -0.147,-0.35 -0.116,-0.54 -0.199,-0.76 -0.304,-0.96 -0.423,-1.27 -0.451,-1.22 -0.302,-1.3 -0.274,-1.17 -0.043,-0.81 0.104,-0.54 0.327,-0.4 0.341,-0.22 h 0.497 l 0.385,0.06 h 0.318 l 0.455,0.21 0.604,0.3 0.692,0.47 0.702,0.56 0.777,0.74 1.069,0.92 1.231,1.06 1.015,1.15 0.931,0.97 0.873,0.79 0.752,0.64 0.623,0.5 0.489,0.48 0.421,0.2 0.227,-0.14 -0.104,-0.23 -0.232,-0.31 -0.084,-0.33 0.013,-0.54 -0.035,-0.79 -0.11,-0.87 -0.312,-1.04 -0.427,-1.12 -0.417,-1.39 -0.511,-1.59 -0.292,-1.52 -0.233,-1.49 v 0 l -0.69,-2.78 v 0"
           inkscape:connector-curvature="0"
           style="fill:none;stroke:#000000;stroke-width:4;stroke-linecap:butt;stroke-linejoin:round" />
      </g>
      <g
         id="g352">
        <path
           id="path350"
           d="m 389.329,1360.25 0.026,0.18 0.013,0.53 0.006,0.18 0.123,-0.21 0.123,-0.09 0.163,-0.22 -0.028,-0.29 0.176,-0.32 0.211,-0.67 0.1,-0.79 0.08,-0.86 -0.037,-0.95 -0.382,-0.9 -0.187,-0.87 -0.364,-0.9 -0.478,-0.7 -0.452,-0.54 -0.517,-0.4 -0.388,-0.41 -0.56,-0.32 -0.484,-0.15 -0.249,0.06 -0.062,0.16 -0.031,0.24 -0.165,0.31 -0.246,0.29 -0.033,0.46 -0.135,0.5 -0.296,0.52 -0.206,0.68 -0.088,0.78 0.04,0.8 0.052,0.85 0.041,0.76 0.142,0.61 0.244,0.54 0.564,0.53 0.511,0.39 0.639,0.33 0.523,0.37 0.775,0.38 0.813,0.32 0.985,0.22 1.088,0.11 1.091,0.01 1.134,-0.29 1.028,-0.41 0.968,-0.62 0.739,-0.82 0.579,-1.1 0.261,-1.31 v 0"
           inkscape:connector-curvature="0"
           style="fill:none;stroke:#000000;stroke-width:4;stroke-linecap:butt;stroke-linejoin:round" />
      </g>
      <g
         id="g356">
        <path
           id="path354"
           d="m 388.061,1339.17 -0.142,0.3 0.025,0.38 0.152,-0.05 0.056,-0.09 0.259,-0.07 0.012,0.1 0.294,0.15 0.512,0.19 0.79,0.32 0.846,0.35 0.749,0.35 0.577,0.32 0.708,0.18 0.835,-0.06 0.663,0.13 0.487,0.04 0.415,0.05 0.341,0.06 0.156,0.08 -0.066,-0.15 -0.186,-0.14 -0.153,0.06 -0.046,0.01 -0.117,0.02 10e-4,0.01 -0.317,0.02 -0.174,0.01 -0.069,0.01 -0.375,0.1 -0.646,0.02 -0.991,-0.1 -0.833,-0.26 -0.625,-0.14 -0.692,-0.21 -1.028,-0.32 -1.224,-0.33 -0.932,-0.22 -0.856,-0.27 -0.939,-0.38 -1.101,-0.28 -1.007,-0.37 -0.874,-0.38 -0.434,-0.4 -0.139,-0.25 -0.002,-0.21 0.155,-0.22 0.102,-0.13 0.037,-0.11 0.159,-0.12 0.144,-0.16 0.186,-0.15 0.282,-0.18 0.405,-0.2 0.41,-0.1 0.485,-0.19 0.684,-0.19 0.932,-0.21 0.684,-0.09 0.427,0.04 0.522,0.16 0.612,0.17 0.542,0.05 0.198,0.14 0.108,0.2 0.323,0.29 0.526,0.53 0.503,0.67 0.403,0.57 0.26,0.39 0.023,0.23 0.201,0.07 0.044,-0.03 -0.047,-0.15 -0.096,-0.13 -0.062,-0.09 0.264,-0.25 0.46,-0.37 0.512,-0.48 0.57,-0.64 0.557,-0.74 0.309,-0.84 0.351,-0.69 -0.002,-0.74 0.067,-0.81 0.308,-0.73 v 0"
           inkscape:connector-curvature="0"
           style="fill:none;stroke:#000000;stroke-width:4;stroke-linecap:butt;stroke-linejoin:round" />
      </g>
      <g
         id="g360">
        <path
           id="path358"
           d="m 386.045,1325.37 0.016,0.39 0.144,0.8 0.449,0.4 0.196,0.23 0.422,0.21 0.642,0.32 0.672,0.25 0.722,0.23 0.874,0.34 0.827,0.27 0.857,-0.07 1.009,-0.31 0.788,-0.46 0.468,-0.54 0.463,-0.56 0.212,-0.69 0.496,-0.61 0.05,-0.82 -0.523,-0.68 -0.195,-0.72 -0.339,-0.73 -0.489,-0.79 -0.665,-0.9 -0.885,-0.84 -0.838,-0.92 -0.894,-0.91 -0.972,-0.8 -0.954,-0.58 -0.703,-0.44 -0.444,-0.1 -0.173,0.25 -0.205,0.36 -0.303,0.54 -0.275,0.6 -0.175,0.72 -0.091,0.86 0.098,0.85 -0.026,0.96 -0.193,0.87 v 0 l -0.345,1.63 -0.222,0.86 v 0"
           inkscape:connector-curvature="0"
           style="fill:none;stroke:#000000;stroke-width:4;stroke-linecap:butt;stroke-linejoin:round" />
      </g>
      <g
         id="g364">
        <path
           id="path362"
           d="m 393.478,1301.03 -0.169,-0.3 0.036,-0.57 0.017,-0.29 0.016,-0.23 0.015,-0.3 -0.106,-0.58 -0.128,-0.44 -0.111,-0.45 0.003,-0.54 -0.095,-0.48 -0.097,-0.44 0.012,-0.42 0.026,-0.43 -0.079,-0.51 -0.103,-0.47 -0.099,-0.63 0.005,-0.59 0.239,-0.55 0.048,-0.73 -0.211,-0.68 -0.023,-0.86 -0.008,-1.17 0.006,-1.35 0.008,-1.53 v -1.62 l -0.109,-1.69 -0.229,-1.73 -0.022,-1.8 0.013,-1.97 0.021,-1.79 0.016,-1.39 0.339,-1.14 0.047,-1.03 -0.42,-1.14 -0.058,-1.15 -0.021,-1.09 0.333,-0.98 0.053,-1 -0.099,-0.95 0.091,-0.95 -0.108,-1.16 -0.019,-1.34 0.102,-1.48 0.004,-1.48 -0.113,-1.53 -0.016,-1.81 -0.114,-1.97 -0.123,-1.86 -0.008,-1.74 -0.207,-1.69 -0.112,-1.57 -0.097,-1.53 0.024,-1.52 0.042,-1.35 0.036,-1.12 0.14,-1.17 0.035,-1.26 0.235,-1.03 0.123,-0.96 0.098,-0.89 0.085,-1.01 0.081,-1.07 0.187,-1.11 -0.025,-1.02 -0.044,-1.07 -0.044,-1.11 0.072,-1.11 -0.122,-1.09 -0.023,-1.09 -0.007,-1.07 0.002,-0.98 0.01,-0.94 0.121,-0.93 0.022,-0.87 0.33,-0.92 0.037,-0.99 -0.457,-0.79 -0.066,-0.76 0.085,-0.75 0.234,-0.67 0.146,-0.75 -0.091,-0.8 -0.015,-0.93 -0.121,-1.15 0.085,-1.4 0.12,-1.44 -0.325,-1.38 -0.143,-1.51 0.091,-1.64 -0.084,-1.72 -0.098,-1.78 -0.102,-1.78 -0.105,-1.55 0.013,-1.54 -0.074,-1.73 -0.204,-1.64 0.006,-1.57 0.14,-1.55 0.045,-1.48 0.135,-1.55 0.022,-1.6 0.109,-1.62 0.107,-1.44 0.097,-1.46 0.091,-1.3 -0.241,-1.27 -0.055,-1.36 0.516,-1.52 0.163,-1.51 -0.223,-1.34 -0.158,-1.49 -0.161,-1.48 -0.144,-1.55 -0.011,-1.55 -0.092,-1.65 -0.088,-1.84 -0.09,-1.82 -0.086,-1.75 0.023,-1.62 0.146,-1.47 0.153,-1.51 -0.081,-1.38 0.102,-1.05 0.215,-1.05 0.01,-0.94 0.09,-0.95 0.09,-1.08 0.093,-1.27 -0.13,-1.24 -0.04,-1.31 -0.03,-1.42 -0.128,-1.44 -0.125,-1.52 -0.008,-1.7 0.014,-1.55 0.022,-1.53 0.022,-1.52 -0.092,-1.52 0.001,-1.4 0.007,-1.28 0.008,-1.14 0.118,-0.85 0.122,-0.59 0.226,-0.38 0.015,-0.4 0.091,-0.38 0.096,-0.25 0.082,-0.35 0.193,-0.32 -0.012,-0.28 0.069,-0.15 -0.027,-0.24 0.077,-0.19 -0.019,-0.19 -0.023,-0.18 -0.016,-0.37 -0.118,-0.54 -0.013,-0.57 0.001,-0.53 0.118,-0.49 0.022,-0.37 0.112,-0.41 -0.095,-0.44 0.099,-0.34 0.214,-0.4 0.126,-0.54 0.216,-0.57 0.216,-0.58 -0.014,-0.77 -0.042,-1.08 -0.053,-1.19 -0.159,-1.24 -0.153,-1.37 -0.031,-1.49 -0.225,-1.38 -0.219,-1.37 0.225,-1.54 -0.142,-1.78 -0.529,-1.61 -0.126,-1.44 0.028,-1.26 -0.262,-1.21 -0.185,-1.23 -0.072,-1.28 -0.061,-1.11 0.054,-0.97 0.166,-0.96 -0.054,-0.91 0.018,-1.01 0.01,-1.17 -0.112,-1.15 -0.017,-1.19 -0.006,-1.32 -0.227,-1.25 -0.131,-1.19 0.102,-1.26 0.144,-1.19 -0.183,-1.23 0.103,-1.26 0.018,-1.27 -0.207,-1.34 -0.247,-1.09 -0.127,-1.09 -0.102,-1.2 0.023,-1.17 0.04,-1.05 -0.07,-1.01 -0.201,-0.84 0.005,-0.89 0.246,-0.94 -0.053,-1.08 0.006,-1.01 -0.109,-1 -0.226,-1.17 0.412,-1.25 0.054,-1.35 -0.436,-1.22 -0.055,-1.29 -0.128,-1.29 -10e-4,-1.26 -0.081,-1.43 0.015,-1.5 -0.087,-1.3 0.015,-1.2 -0.088,-1.09 -0.098,-1.08 -0.32,-0.99 -0.013,-0.9 0.36,-0.69 0.073,-0.67 0.134,-0.69 0.017,-0.68 0.1,-0.76 -0.008,-0.92 -0.025,-1.07 -0.03,-1.1 -0.142,-0.99 -0.136,-1.1 -0.24,-1.15 -0.019,-1.14 0.242,-1.18 -0.05,-1.21 0.018,-0.99 -0.095,-0.91 -0.005,-0.71 -0.111,-0.48 -0.007,-0.15 0.211,0.01 0.127,0.34 0.034,0.38 -0.037,0.24 0.035,0.18 0.083,0.12 0.123,0.2 0.125,0.18 0.092,0.13 v 0"
           inkscape:connector-curvature="0"
           style="fill:none;stroke:#000000;stroke-width:4;stroke-linecap:butt;stroke-linejoin:round" />
      </g>
      <g
         id="g368">
        <path
           id="path366"
           d="m 304.812,1017.2 -0.024,0.1 0.052,0.01 h 0.097 l 0.003,0.1 h 0.079 l 0.024,-0.09 -0.115,0.06 h 0.053 l 0.008,-0.07 0.09,-0.03 0.199,-0.01 h 0.177 l 0.304,-0.1 0.548,-0.12 0.689,-0.11 h 0.775 l 0.744,0.02 0.881,0.13 0.999,0.15 1.195,0.02 1.205,-0.1 1.256,-0.13 1.32,-0.02 1.315,-0.01 h 1.46 l 1.588,0.11 1.511,0.24 1.44,0.14 1.781,0.11 1.729,0.1 1.371,0.09 1.294,0.08 1.244,-0.03 1.156,0.07 1.137,-0.03 1.356,0.07 1.469,0.09 1.402,0.1 1.446,0.11 1.289,0.1 1.506,0.1 1.399,0.1 1.067,0.1 1.111,-0.02 1.004,0.08 1.177,0.19 1.157,-0.01 1.063,0.08 0.746,-0.01 0.472,-0.02 0.518,-0.03 0.618,-0.02 0.589,-0.01 0.582,-0.01 0.7,0.1 0.679,0.02 0.646,0.11 0.643,0.02 0.737,0.1 0.956,0.1 0.924,0.11 1.047,0.21 1.364,0.1 1.259,0.09 0.951,0.09 0.622,-0.02 0.346,0.07 0.591,-0.03 0.735,0.07 0.53,-0.01 0.335,-0.02 0.323,-0.12 0.854,-0.03 1.067,-0.01 0.706,0.01 0.213,0.02 -0.008,0.02 0.461,0.01 0.872,0.11 0.707,0.13 0.749,0.11 0.964,0.1 h 0.868 l 0.653,0.09 0.477,-0.02 0.529,-0.03 0.197,-0.02 0.092,-0.12 0.19,-0.13 0.406,-0.13 0.289,-0.13 h 0.513 l 1.002,0.03 0.882,0.04 0.922,0.03 0.81,0.14 0.387,0.16 0.386,0.02 0.525,0.08 0.715,0.21 0.472,0.11 0.456,0.08 0.287,0.19 0.196,0.09 0.158,-0.04 0.099,-0.05 0.119,-0.05 0.23,-0.04 0.102,-0.02 h 0.148 -0.009 l 0.048,0.01 0.363,-0.09 0.587,-0.01 0.514,0.12 0.531,-0.08 0.693,-0.01 0.659,0.12 0.396,0.13 0.27,0.02 0.159,0.1 h -0.11 l -0.21,-0.02 -0.17,-0.03 -0.091,0.05 -0.112,0.01 0.176,-0.01 0.039,-0.01 h 0.082 -0.167 0.048 l 0.222,0.06 0.137,0.03 -0.224,-0.09 -0.139,-0.15 0.084,0.01 -0.02,0.1 -0.07,0.04 0.025,-0.02 -0.097,0.14 -0.199,0.02 -0.156,-0.04 -0.056,0.1 -0.118,-0.04 -0.106,0.11 v 0"
           inkscape:connector-curvature="0"
           style="fill:none;stroke:#000000;stroke-width:4;stroke-linecap:butt;stroke-linejoin:round" />
      </g>
      <g
         id="g372">
        <path
           id="path370"
           d="m 391.697,1032.92 -0.21,0.17 0.063,-0.11 0.07,-0.05 -0.017,-0.02 0.029,-0.1 -0.118,-0.02 0.058,-0.02 0.177,-0.19 0.187,-0.48 0.164,-0.54 0.004,-0.48 0.077,-0.5 -0.031,-0.69 -0.042,-0.82 0.07,-0.83 0.198,-0.87 v -0.77 l -0.233,-0.79 -0.157,-0.71 -0.14,-0.69 -2.644,1.91 v 0"
           inkscape:connector-curvature="0"
           style="fill:none;stroke:#000000;stroke-width:4;stroke-linecap:butt;stroke-linejoin:round" />
      </g>
    </g>
  </g>
</svg>
